<?xml version="1.0" encoding="UTF-8"?>
<svg width="617px" height="197px" viewBox="0 0 617 197" version="1.1" xmlns="http://www.w3.org/2000/svg" xmlns:xlink="http://www.w3.org/1999/xlink">
    <!-- Generator: Sketch 51.2 (57519) - http://www.bohemiancoding.com/sketch -->
    <title>Group 8</title>
    <desc>Created with Sketch.</desc>
    <defs>
        <polygon id="path-1" points="0.00181764706 0.24875 176.240876 0.24875 176.240876 194.104899 0.00181764706 194.104899"></polygon>
    </defs>
    <g id="Page-1" stroke="none" stroke-width="1" fill="none" fill-rule="evenodd">
        <g id="Group-8">
            <g id="Group-3" transform="translate(0.000000, 0.297185)">
                <mask id="mask-2" fill="white">
                    <use xlink:href="#path-1"></use>
                </mask>
                <g id="Clip-2"></g>
                <path d="M129.345582,175.219546 L134.362288,178.709428 L135.016641,178.055075 L129.999935,175.437663 L129.345582,175.219546 Z M101.208406,92.771075 L91.6112294,97.7877809 C90.8796265,102.586369 90.7387588,107.384957 91.1749941,112.183546 L102.080876,92.771075 L101.208406,92.771075 Z M143.086994,0.507310294 C144.100332,0.507310294 144.940994,0.434604412 145.595347,0.289192647 C146.2497,0.148325 146.904053,0.366442647 147.558406,0.943545588 C148.212759,1.52519265 149.412406,2.39766324 151.157347,3.56095735 L152.029818,2.90660441 C158.277979,5.38314853 164.462524,8.21867794 170.569818,11.4131926 L176.240876,17.9567221 C176.095465,20.4332662 176.054568,22.1009574 176.131818,22.9734279 C176.204524,23.8458985 175.945509,24.6093103 175.368406,25.2636632 C174.786759,25.9180162 173.914288,27.1176632 172.750994,28.8626044 C170.133582,29.5942074 167.516171,29.8804868 164.898759,29.735075 C161.985979,32.4978985 160.022921,35.6969574 159.009582,39.3322515 L158.355229,37.8054279 L157.264641,38.4597809 C157.264641,39.6276191 157.082876,40.7909132 156.719347,41.9496632 C156.351274,43.1175015 155.769626,44.0990309 154.974406,44.8942515 C154.170097,45.6940162 153.297626,50.0927221 152.356994,58.0903691 C151.407274,66.0880162 151.516332,71.1047221 152.684171,73.1404868 C153.847465,75.1762515 153.915626,77.9754279 152.902288,81.5380162 C151.879862,85.1006044 151.302759,87.5362515 151.157347,88.8449574 L150.502994,87.3181338 C150.066759,87.7543691 149.771391,88.5541338 149.630524,89.7174279 C149.485112,90.8807221 149.444215,91.6804868 149.521465,92.1167221 C149.594171,92.5529574 149.698685,93.1391485 149.848641,93.8616632 L151.375465,90.5898985 C151.375465,92.0440162 151.302759,93.4254279 151.157347,94.7341338 C151.011935,96.0428397 151.157347,100.768722 151.593582,108.911781 C152.029818,117.059384 152.606921,121.99884 153.338524,123.743781 C154.061038,125.488722 154.460921,128.905899 154.538171,133.99531 C154.610876,139.084722 154.610876,142.361031 154.538171,143.810604 C154.460921,145.264722 154.788097,146.282604 155.5197,146.864251 C156.242215,147.445899 156.860215,148.20931 157.3737,149.154487 C157.882641,150.099663 158.100759,150.754016 158.028053,151.117546 C157.950803,151.476531 157.918994,151.880957 157.918994,152.317193 L156.174053,152.099075 C156.314921,153.407781 156.464876,154.352957 156.610288,154.934604 C156.751156,155.516251 156.610288,156.352369 156.174053,157.442957 C155.737818,158.533546 155.551509,160.242134 155.628759,162.568722 C155.696921,164.89531 156.423979,167.040134 157.809935,169.003193 C159.186803,170.966251 160.350097,173.583663 161.299818,176.855428 C162.244994,180.127193 162.608524,182.017546 162.390406,182.526487 C162.172288,183.035428 161.985979,183.648884 161.845112,184.380487 L157.264641,188.306604 L155.737818,192.887075 C155.44245,193.468722 155.156171,193.791354 154.865347,193.868604 C154.569979,193.94131 153.956524,194.014016 153.011347,194.086722 C152.066171,194.159428 151.189156,194.014016 150.393935,193.650487 C149.594171,193.286957 148.612641,192.741663 147.449347,192.014604 L143.086994,186.779781 L136.761582,186.561663 L140.6877,185.471075 L141.123935,183.071781 C138.647391,183.071781 136.761582,182.126604 135.452876,180.236251 L134.580406,179.145663 L133.707935,179.800016 L125.8557,173.692722 C126.141979,174.274369 126.364641,174.601546 126.510053,174.674251 C126.650921,174.746957 126.728171,175.001428 126.728171,175.437663 C126.728171,175.873899 126.869038,176.451001 127.164406,177.182604 L123.456406,171.07531 L121.057112,168.894134 L119.748406,167.803546 C122.365818,169.112251 124.401582,170.12559 125.8557,170.857193 C127.305274,171.584251 128.323156,172.165899 128.909347,172.602134 L128.909347,171.293428 L124.110759,168.457899 L124.110759,167.585428 L124.983229,168.239781 L125.637582,167.803546 L123.674524,166.276722 L126.510053,166.712957 L121.929582,163.441193 L122.802053,163.65931 L122.1477,162.568722 L115.604171,158.642604 C119.816568,161.114604 124.328876,162.78684 129.127465,163.65931 C128.691229,163.368487 128.323156,163.114016 128.036876,162.895899 C127.741509,162.677781 127.273465,162.386957 126.619112,162.023428 C125.964759,161.659899 124.905979,160.969193 123.456406,159.95131 L127.382524,161.260016 L126.946288,159.733193 L125.8557,159.733193 C125.419465,159.733193 124.546994,159.260604 123.238288,158.315428 C121.929582,157.370251 119.816568,155.729825 116.912876,153.407781 C118.221582,153.844016 119.166759,154.280251 119.748406,154.716487 C120.325509,155.152722 121.347935,155.62531 122.802053,156.134251 C124.251626,156.643193 125.710288,157.043075 127.164406,157.333899 L120.402759,151.66284 C125.055935,152.971546 129.704568,153.989428 134.362288,154.716487 L135.234759,152.53531 L130.872406,150.790369 L130.218053,149.263546 L137.634053,150.790369 C137.488641,109.63884 139.083626,68.4873103 142.432641,27.3357809 C140.6877,27.4811926 139.192685,27.6629574 137.961229,27.881075 C136.725229,28.0991926 133.380759,29.3351926 127.927818,31.589075 C122.474876,33.8475015 111.678053,40.859075 95.5373471,52.6374279 L92.4837,71.6136632 L93.7924059,66.815075 C92.9199353,71.4682515 92.4837,76.1214279 92.4837,80.7746044 C95.6782147,79.0296632 98.4455824,77.5391926 100.772171,76.3031926 C103.094215,75.0671926 104.548332,74.5218985 105.134524,74.6673103 L107.097582,71.1774279 C106.365979,70.4503691 106.365979,69.7278544 107.097582,68.9962515 C107.824641,68.7054279 108.547156,68.7054279 109.278759,68.9962515 C110.005818,69.287075 111.459935,69.7596632 113.641112,70.4140162 C115.822288,71.0683691 117.603582,71.4318985 118.984994,71.5046044 C120.361862,71.5773103 121.525156,71.7999721 122.474876,72.1589574 C123.415509,72.5224868 124.687862,72.995075 126.291935,73.5767221 C125.8557,74.4491926 126.073818,75.0308397 126.946288,75.3216632 C126.073818,76.4849574 125.710288,77.7209574 125.8557,79.0296632 L131.744876,81.4289574 L130.436171,83.3920162 C128.254994,84.4098985 125.996568,85.1369574 123.674524,85.5731926 L123.674524,84.4826044 C117.858053,86.5183691 112.332406,88.9903691 107.097582,91.8986044 C105.493509,93.3527221 104.262053,94.5160162 103.389582,95.3884868 C102.517112,96.2609574 101.208406,98.0786044 99.4634647,100.841428 C97.7185235,103.604251 96.2644059,105.640016 95.1011118,106.948722 C93.9378176,108.257428 93.0971559,109.384369 92.5927588,110.329546 C92.0792735,111.279266 91.2477,113.056016 90.0844059,115.673428 L90.7387588,117.200251 C93.3561706,115.600722 95.3873912,114.292016 96.8460529,113.274134 C98.2956265,112.260796 99.9315088,110.547663 101.7537,108.148369 C103.571347,105.749075 105.493509,104.513075 107.533818,104.440369 C109.565038,104.367663 111.678053,103.931428 113.859229,103.131663 C116.040406,102.331899 117.567229,102.186487 118.4397,102.695428 C119.312171,103.204369 120.257347,103.427031 121.275229,103.349781 C122.288568,103.277075 123.092876,103.386134 123.674524,103.676957 C124.251626,103.967781 125.124097,104.33131 126.291935,104.767546 L125.201347,106.294369 L127.164406,108.257428 L127.382524,106.948722 L128.254994,106.948722 C127.818759,107.966604 127.600641,108.911781 127.600641,109.784251 L124.983229,110.438604 L124.983229,111.74731 L128.145935,111.74731 C128.800288,111.74731 129.309229,111.856369 129.672759,112.074487 C130.031744,112.292604 130.436171,112.619781 130.872406,113.056016 C130.577038,114.223854 130.872406,115.237193 131.744876,116.109663 L129.781818,118.508957 C126.728171,118.508957 124.038053,118.36809 121.711465,118.072722 C119.384876,117.781899 116.331229,118.218134 112.550524,119.381428 C108.765274,120.549266 106.225112,121.562604 104.916406,122.435075 C103.6077,123.307546 102.844288,123.743781 102.626171,123.743781 L101.862759,123.743781 L100.335935,125.488722 L99.4634647,124.398134 C98.7318618,124.979781 98.0093471,125.129737 97.2822882,124.834369 C97.1368765,125.852251 96.8460529,126.57931 96.4098176,127.015546 L95.3192294,126.143075 C93.4288765,127.601737 91.6112294,129.124016 89.8662882,130.723546 L89.2119353,143.374369 L90.0844059,143.592487 C90.0844059,144.464957 90.0071559,145.151119 89.8662882,145.664604 C89.7208765,146.173546 89.5709206,147.223237 89.4300529,148.82731 C89.2846412,150.42684 89.2437441,151.58559 89.3209941,152.317193 C89.3937,153.044251 89.5709206,153.766766 89.8662882,154.498369 C87.9759353,157.84284 88.0440971,161.114604 90.0844059,164.313663 C90.0844059,163.004957 90.3025235,161.696251 90.7387588,160.387546 C90.5933471,163.004957 90.6297,164.713546 90.8478176,165.51331 C91.0659353,166.313075 90.9159794,167.040134 90.4115824,167.694487 C89.8980971,168.34884 89.4300529,169.22131 88.9938176,170.311899 C88.5575824,171.402487 87.6851118,173.54731 86.3764059,176.746369 L82.6684059,180.236251 L81.3597,179.800016 C78.8877,176.310134 76.5611118,172.67484 74.3799353,168.894134 L74.8161706,168.021663 C72.9212735,166.276722 72.1215088,164.168251 72.4168765,161.696251 L71.7625235,163.004957 L71.3262882,162.568722 L72.6349941,160.823781 L67.8364059,152.099075 L70.4538176,155.807075 L65.8733471,145.11931 L67.4001706,147.300487 L64.1284059,137.267075 C65.8733471,141.193193 67.0729941,143.88331 67.7273471,145.337428 C68.3817,146.791546 69.1087588,147.95484 69.9085235,148.82731 C70.7037441,149.699781 71.7625235,150.935781 73.0712294,152.53531 L70.2357,147.300487 L70.6719353,146.646134 L71.7625235,148.82731 L71.1081706,147.518604 L73.7255824,148.609193 L67.8364059,138.139546 L70.0175824,140.102604 L65.0008765,130.723546 L70.6719353,139.012016 L70.2357,137.921428 L72.1987588,140.320722 L76.5611118,144.901193 C77.4335824,123.384796 78.2288029,108.693663 78.9604059,100.841428 C79.6874647,92.9891926 81.9368029,78.3753103 85.7220529,56.9997809 C81.7959353,58.0176632 78.8513471,58.7447221 76.8882882,59.1809574 C74.9252294,59.6171926 72.8849206,59.4717809 70.7809941,58.7447221 C68.6679794,58.0176632 67.4001706,57.3633103 66.9639353,56.7816632 L66.9639353,55.0367221 L64.3465235,52.6374279 C66.2323324,51.1878544 67.7591559,49.9473103 68.9269941,48.9294279 C70.0857441,47.9115456 76.5611118,43.6264426 88.3394647,36.0604868 C88.3394647,35.0426044 88.3712735,34.3155456 88.4485235,33.8793103 C88.5212294,33.443075 88.8847588,32.9341338 89.5391118,32.3524868 C90.1934647,31.7753838 91.0977441,30.8256632 92.2655824,29.5169574 L94.2286412,31.0437809 L135.234759,8.14142794 C135.961818,6.251075 137.047862,4.57883971 138.506524,3.12472206 L143.086994,0.507310294 Z M43.6253471,84.9188397 L40.3535824,87.5362515 L29.4477,103.45884 L30.7564059,104.985663 L42.0985235,99.7508397 L43.8434647,85.1369574 L43.6253471,84.9188397 Z M50.8232294,36.4967221 C48.3466853,37.8054279 46.1337,38.8960162 44.1706412,39.7684868 C42.2075824,40.6409574 35.7731118,44.7851926 24.8672294,52.2011926 C25.7397,53.219075 26.4622147,53.9461338 27.0484059,54.3823691 C27.6255088,54.8186044 28.0299353,55.5502074 28.2480529,56.5635456 C28.4661706,57.5814279 28.3207588,58.4947956 27.8118176,59.2900162 C27.2983324,60.0897809 26.9393471,61.0349574 26.7212294,62.1255456 C26.5031118,63.2161338 26.0986853,64.9974279 25.5215824,67.4694279 C27.2665235,66.5969574 28.7569941,65.9426044 29.9929941,65.5063691 C31.22445,65.0701338 33.5919353,64.1249574 37.0818176,62.6708397 C40.5717,61.2212662 42.7528765,60.635075 43.6253471,60.9258985 C44.4978176,61.2212662 45.5111559,61.5802515 46.6789941,62.0164868 L50.8232294,36.4967221 Z M33.5919353,82.5195456 L24.2128765,88.8449574 L22.9041706,100.841428 C24.3582882,98.951075 25.9578176,96.6244868 27.7027588,93.8616632 C29.4477,91.1033838 31.4789206,87.3908397 33.8100529,82.7376632 L33.5919353,82.5195456 Z M51.2594647,19.9197809 C51.5457441,19.9197809 51.8047588,19.8834279 52.0228765,19.8107221 C52.2409941,19.7380162 52.9271559,20.0288397 54.0949941,20.6831926 C55.2537441,21.3375456 57.18045,21.701075 59.8751118,21.7737809 C62.5652294,21.8510309 64.7055088,22.5053838 66.3095824,23.7368397 C67.9045676,24.9773838 70.15845,26.6814279 73.0712294,28.8626044 L73.7255824,33.443075 L68.4907588,37.8054279 C67.6182882,39.8411926 66.8185235,41.5906779 66.0914647,43.0402515 C65.3598618,44.4943691 63.9829941,49.9836632 61.9472294,59.5081338 C59.9069206,69.0326044 58.8935824,74.9217809 58.8935824,77.1756632 C58.8935824,79.4295456 58.4573471,81.8651926 57.5848765,84.4826044 C56.7124059,87.1000162 56.1989206,89.0312662 56.0580529,90.2627221 C55.9080971,91.4987221 55.6945235,92.5893103 55.4037,93.5344868 C55.1083324,94.4796632 54.7493471,96.3700162 54.3131118,99.2055456 C53.8768765,102.041075 54.0177441,103.967781 54.7493471,104.985663 C55.4764059,106.003546 55.6536265,107.025972 55.2946412,108.03931 C54.9311118,109.057193 54.6720971,110.947546 54.5312294,113.710369 C54.3812735,116.473193 54.4585235,118.945193 54.7493471,121.126369 C55.0356265,123.307546 55.4355088,124.870722 55.9489941,125.815899 C56.4533912,126.761075 57.2168029,128.17884 58.2392294,130.069193 C56.9305235,132.981972 56.1307588,135.817501 55.8399353,138.575781 L52.5681706,140.320722 L49.2964059,138.357663 C46.3836265,135.885663 44.2797,132.904722 42.9709941,129.41484 L40.1354647,127.451781 L35.5549941,122.653193 C36.4274647,123.525663 37.4408029,124.10731 38.6086412,124.398134 L34.0281706,120.908251 L22.6860529,129.632957 C22.0998618,131.52331 21.7363324,132.832016 21.5954647,133.559075 C21.4455088,134.290678 21.3773471,135.05409 21.3773471,135.84931 C21.3773471,136.649075 21.1592294,137.303428 20.7229941,137.812369 C20.2867588,138.32131 19.5551559,139.084722 18.5418176,140.102604 C14.7565676,139.084722 11.4120971,137.267075 8.50840588,134.649663 L5.89099412,131.159781 L1.96487647,127.451781 L0.00181764706,122.216957 C0.874288235,121.344487 1.60134706,120.472016 2.18299412,119.599546 C2.76009706,118.727075 2.86915588,118.000016 2.51017059,117.418369 C2.14209706,116.836722 2.43292059,115.782487 3.38264118,114.255663 C4.32781765,112.72884 5.23664118,104.69484 6.10911176,90.1536632 L3.27358235,88.8449574 L3.27358235,87.1000162 L6.54534706,84.2644868 C7.55868529,74.0902074 8.35845,63.7614279 8.94464118,53.2917809 L5.23664118,49.8018985 C4.06880294,47.9115456 3.70981765,45.8757809 4.14605294,43.6946044 L14.3975824,45.6576632 C24.5718618,38.1007956 35.2596265,31.2618985 46.4608765,25.1546044 L47.1152294,23.1915456 L51.2594647,19.9197809 Z" id="Fill-1" fill="#333333" mask="url(#mask-2)"></path>
            </g>
            <path d="M346.371278,50.3185647 C348.98869,51.9226382 350.915396,53.1904471 352.151396,54.1356235 C353.382851,55.0808 354.441631,55.3352706 355.314101,54.8990353 C356.186572,54.4628 356.913631,54.4991529 357.495278,55.0080941 C358.076925,55.5215794 358.731278,55.7351529 359.458337,55.6624471 C360.185396,55.5897412 360.798851,55.6260941 361.312337,55.7715059 C361.821278,55.9169176 362.257513,55.9896235 362.621043,55.9896235 C362.984572,55.9896235 363.311749,55.9532706 363.602572,55.8805647 C363.893396,55.8078588 364.256925,55.5533882 364.69316,55.1171529 L364.69316,56.4258588 L366.219984,56.4258588 L367.310572,54.8990353 C367.455984,55.0444471 367.601396,55.1898588 367.746807,55.3352706 C367.887675,55.4806824 367.928572,55.7715059 367.855866,56.2077412 C367.778616,56.6439765 367.746807,57.5891529 367.746807,59.0432706 C370.218807,59.0432706 372.47269,58.4616235 374.508454,57.2983294 L375.599043,57.7345647 L376.471513,58.3889176 L374.726572,58.6070353 L376.035278,62.7512706 L376.907749,62.0969176 C376.471513,61.3698588 376.394263,60.4246824 376.689631,59.2613882 L379.52516,63.8418588 L392.830337,72.5665647 C394.72069,75.1839765 396.102101,76.8925647 396.974572,77.6923294 C397.847043,78.4920941 398.283278,79.1464471 398.283278,79.6553882 L398.283278,81.7275059 L397.410807,81.9456235 L397.410807,83.2543294 L395.665866,84.7811529 C396.247513,86.0898588 396.792807,87.0350353 397.301749,87.6166824 C397.81069,88.1983294 397.956101,89.1435059 397.737984,90.4522118 C397.519866,91.7609176 397.847043,93.0332706 398.719513,94.2692706 C399.591984,95.5052706 399.91916,96.3050353 399.701043,96.6685647 C399.482925,97.0320941 399.296616,97.7228 399.155749,98.7406824 C396.392925,98.8860941 394.388969,99.0315059 393.157513,99.1769176 C391.921513,99.3223294 391.121749,99.3223294 390.758219,99.1769176 C390.39469,99.0315059 389.994807,98.8860941 389.558572,98.7406824 L389.340454,101.358094 C387.013866,99.6131529 384.464616,98.6679765 381.706337,98.5225647 C381.706337,99.5404471 381.410969,100.485624 380.833866,101.358094 C380.252219,100.485624 379.743278,99.8676235 379.307043,99.5040941 C378.870807,99.1405647 378.361866,98.9224471 377.780219,98.8497412 C377.198572,98.7770353 376.653278,98.5998147 376.144337,98.3044471 C375.630851,98.0136235 374.86744,97.5046824 373.854101,96.7776235 L373.199749,98.5225647 L371.672925,98.5225647 C371.527513,97.5046824 371.486616,96.8139765 371.563866,96.4504471 C371.636572,96.0869176 371.563866,95.7233882 371.345749,95.3598588 C371.127631,95.0008735 370.800454,94.4510353 370.364219,93.7239765 C368.910101,92.9969176 366.29269,90.9611529 362.511984,87.6166824 C358.731278,84.2722118 355.386807,81.2912706 352.478572,78.6738588 L333.938572,59.2613882 L336.774101,60.1338588 C336.047043,59.4068 335.756219,58.4616235 335.901631,57.2983294 C336.914969,57.2983294 338.010101,57.4437412 339.173396,57.7345647 L338.519043,56.6439765 L340.263984,57.5164471 C339.536925,56.7893882 339.246101,55.8442118 339.391513,54.6809176 L341.790807,54.2446824 L342.663278,53.1540941 L343.535749,53.5903294 L343.753866,52.7178588 L348.552454,54.2446824 L345.28069,51.1910353 L347.025631,51.8453882 L346.371278,50.3185647 Z M297.731043,45.0837412 C298.894337,46.6832706 299.616851,48.3191529 299.912219,49.9913882 C300.203043,51.6636235 300.711984,53.8811529 301.439043,56.6439765 C302.166101,59.4068 302.820454,62.5331529 303.402101,66.0230353 C303.979204,69.5129176 304.383631,71.4032706 304.601749,71.6940941 C304.819866,71.9849176 304.856219,72.5665647 304.710807,73.4390353 L305.147043,72.5665647 C308.055278,70.0945647 310.163749,68.3132706 311.472454,67.2226824 C312.78116,66.1320941 313.944454,65.2596235 314.962337,64.6052706 C315.980219,63.9509176 317.579749,63.0420941 319.760925,61.8788 L320.19716,62.5331529 C318.161396,64.8597412 316.561866,66.5319765 315.398572,67.5498588 C314.235278,68.5677412 312.962925,70.2036235 311.581513,72.4575059 C310.200101,74.7113882 309.400337,76.5653882 309.182219,78.0195059 C308.964101,79.4736235 309.104969,80.4551529 309.618454,80.9640941 C310.127396,81.4730353 310.304616,81.8729176 310.163749,82.1637412 C310.018337,82.4545647 309.945631,82.8180941 309.945631,83.2543294 L311.472454,82.8180941 L312.126807,85.8717412 L314.089866,86.3079765 L314.962337,89.1435059 L316.271043,89.3616235 C316.271043,91.1065647 316.416454,92.6333882 316.707278,93.9420941 C316.998101,95.2508 317.288925,96.0869176 317.579749,96.4504471 C317.870572,96.8139765 318.015984,97.4319765 318.015984,98.3044471 L318.888454,98.7406824 C318.597631,99.7585647 318.452219,100.631035 318.452219,101.358094 C318.452219,102.085153 317.979631,102.848565 317.034454,103.648329 C316.084734,104.448094 314.666969,106.011271 312.78116,108.337859 L310.163749,109.646565 C309.291278,108.919506 308.636925,108.265153 308.20069,107.683506 C307.764454,107.101859 306.564807,106.592918 304.601749,106.156682 C302.63869,105.720447 300.966454,105.502329 299.585043,105.502329 L296.749513,105.502329 C296.240572,105.502329 295.549866,105.356918 294.677396,105.066094 L290.096925,98.3044471 L285.298337,94.8145647 L286.388925,94.8145647 C285.371043,93.2150353 284.498572,91.4700941 283.771513,89.5797412 C283.771513,89.2889176 283.844219,89.0344471 283.989631,88.8163294 C284.135043,88.5982118 284.02144,87.8348 283.662454,86.5260941 C283.298925,85.2173882 283.258028,83.5815059 283.553396,81.6184471 C283.844219,79.6553882 284.825749,77.5469176 286.497984,75.2930353 C288.165675,73.0391529 289.151749,69.6946824 289.442572,65.2596235 C289.733396,60.8245647 290.346851,57.4800941 291.296572,55.2262118 C292.241749,52.9723294 292.677984,51.4455059 292.605278,50.6457412 C292.528028,49.8459765 292.568925,48.7917412 292.714337,47.4830353 L295.331749,47.4830353 L294.677396,46.1743294 L296.858572,47.2649176 L296.858572,44.2112706 L297.731043,45.0837412 Z M271.338807,67.7679765 C273.083749,72.4211529 274.392454,75.8383294 275.264925,78.0195059 C276.137396,80.2006824 277.009866,83.4360941 277.882337,87.7257412 C278.754807,92.0153882 279.881749,96.7412706 281.26316,101.903388 C282.644572,107.065506 284.135043,111.3188 285.734572,114.663271 C287.334101,118.007741 288.788219,120.261624 290.096925,121.424918 C291.405631,122.588212 293.29144,124.623976 295.767984,127.532212 C298.530807,128.70005 300.639278,129.604329 302.093396,130.258682 C303.547513,130.913035 305.583278,131.312918 308.20069,131.458329 C310.818101,131.603741 314.816925,132.039976 320.19716,132.767035 C321.210499,130.585859 321.905749,128.949976 322.269278,127.859388 C322.628263,126.7688 323.069043,124.551271 323.577984,121.2068 C324.086925,117.862329 324.26869,113.1728 324.123278,107.138212 C323.977866,101.103624 324.195984,95.5779765 324.777631,90.5612706 C325.354734,85.5445647 325.722807,82.3091529 325.868219,80.8550353 C326.159043,81.5820941 326.449866,82.2728 326.74069,82.9271529 C327.031513,83.5815059 327.431396,86.4170353 327.940337,91.4337412 C328.449278,96.4504471 331.24391,105.793153 336.337866,119.461859 L338.082807,120.116212 L338.73716,117.062565 C339.318807,119.389153 340.33669,121.497624 341.790807,123.387976 L342.227043,121.861153 C343.244925,123.315271 344.04469,124.769388 344.626337,126.223506 L345.716925,126.441624 L347.025631,124.260447 C348.770572,125.278329 350.333749,126.223506 351.71516,127.095976 C353.096572,127.968447 354.037204,128.550094 354.55069,128.840918 C355.059631,129.131741 355.750337,129.495271 356.622807,129.931506 L357.27716,132.3308 L360.767043,135.602565 L361.421396,137.783741 L362.075749,136.475035 C362.075749,136.620447 362.652851,137.747388 363.82069,139.855859 C364.983984,141.964329 365.59744,143.672918 365.67469,144.981624 C365.747396,146.290329 365.92916,147.380918 366.219984,148.253388 C366.510807,149.125859 366.46991,149.889271 366.110925,150.543624 C365.747396,151.197976 365.420219,151.920491 365.129396,152.7248 C364.834028,153.520021 364.43869,154.215271 363.929749,154.796918 C363.416263,155.374021 362.984572,156.064726 362.621043,156.869035 C362.257513,157.6688 361.494101,159.082021 360.330807,161.122329 C359.603749,161.413153 359.022101,161.631271 358.585866,161.776682 C358.149631,161.91755 357.495278,161.9948 356.622807,161.9948 C355.750337,161.9948 354.368925,162.062962 352.478572,162.212918 C352.478572,163.521624 352.551278,164.680374 352.69669,165.7028 C352.405866,165.843668 351.169866,165.811859 348.98869,165.593741 C346.807513,165.375624 345.426101,165.339271 344.844454,165.484682 C344.262807,165.62555 343.68116,165.775506 343.099513,165.920918 L342.227043,165.048447 L340.700219,165.048447 C340.263984,165.048447 339.427866,164.866682 338.191866,164.503153 C336.955866,164.135079 335.901631,163.739741 335.02916,163.303506 C334.15669,162.867271 333.138807,162.685506 331.975513,162.758212 C330.812219,162.830918 329.21269,162.608256 327.176925,162.103859 C325.14116,161.590374 322.596454,161.267741 319.542807,161.122329 C316.48916,160.976918 312.70391,160.249859 308.20069,158.941153 C303.692925,157.632447 299.403278,155.810256 295.331749,153.488212 C291.260219,151.157079 288.461043,149.343976 286.934219,148.035271 C285.407396,146.726565 283.48069,144.981624 281.154101,142.800447 C278.391278,138.728918 276.355513,135.784329 275.046807,133.966682 C273.738101,132.149035 272.461204,129.204447 271.229749,125.132918 C269.993749,121.061388 268.685043,116.153741 267.303631,110.409976 C265.917675,104.666212 265.340572,97.6500941 265.55869,89.3616235 C265.776807,81.0731529 265.55869,76.4199765 264.904337,75.4020941 C264.249984,74.3842118 263.559278,73.2936235 262.832219,72.1303294 L264.359043,69.9491529 C266.103984,69.2220941 267.776219,68.2042118 269.375749,66.8955059 L271.338807,67.7679765 Z M247.563984,61.2244471 C248.87269,63.2602118 249.890572,64.6416235 250.617631,65.3686824 C251.34469,66.0957412 251.740028,67.1136235 251.817278,68.4223294 C251.889984,69.7310353 251.490101,70.8579765 250.617631,71.8031529 C249.74516,72.7528735 249.340734,74.2388 249.417984,76.2745647 C249.49069,78.3103294 249.236219,82.2364471 248.654572,88.0529176 L255.852454,78.6738588 L259.99669,76.9289176 C258.106337,79.4009176 256.647675,81.3685206 255.634337,82.8180941 C254.616454,84.2722118 253.19869,86.8169176 251.381043,90.4522118 C249.558851,94.0875059 248.363749,97.2502118 247.782101,99.9403294 C247.200454,102.630447 247.091396,104.738918 247.454925,106.265741 C247.818454,107.792565 247.782101,109.028565 247.345866,109.973741 C246.909631,110.918918 246.473396,112.845624 246.03716,115.753859 L248.436454,116.190094 C246.40069,119.9708 245.528219,123.969624 245.819043,128.186565 L244.946572,128.6228 L246.909631,129.277153 C247.055043,129.713388 247.200454,130.149624 247.345866,130.585859 C247.491278,131.022094 247.377675,131.821859 247.01869,132.985153 C246.65516,134.148447 246.764219,135.457153 247.345866,136.911271 C247.922969,138.365388 248.000219,139.710447 247.563984,140.946447 C247.127749,142.182447 246.614263,143.200329 246.03716,144.000094 C245.455513,144.799859 244.583043,146.217624 243.419749,148.253388 L238.839278,149.998329 C237.675984,149.702962 236.876219,149.416682 236.439984,149.125859 C236.003749,148.830491 235.494807,148.689624 234.91316,148.689624 C234.331513,148.689624 233.568101,148.212491 232.622925,147.271859 L228.369631,143.018565 C226.479278,140.255741 225.243278,138.292682 224.661631,137.129388 C224.079984,135.966094 223.493793,134.439271 222.91669,132.548918 C222.335043,130.658565 221.530734,128.840918 220.517396,127.095976 L213.755749,124.260447 C213.610337,122.660918 213.501278,121.570329 213.428572,120.988682 C213.355866,120.407035 213.392219,120.007153 213.537631,119.789035 C213.678499,119.570918 213.90116,119.316447 214.191984,119.025624 C214.332851,119.171035 214.482807,119.280094 214.628219,119.3528 C214.773631,119.425506 214.846337,119.752682 214.846337,120.334329 C214.846337,120.915976 214.919043,121.788447 215.064454,122.951741 L216.591278,120.988682 L218.336219,120.552447 L218.554337,117.280682 L217.245631,117.4988 L217.245631,115.317624 L216.37316,114.663271 L217.681866,110.737153 C219.572219,108.701388 221.971513,107.029153 224.879749,105.720447 C226.479278,102.230565 228.151513,98.5589176 229.896454,94.7055059 C231.641396,90.8520941 233.459043,84.5266824 235.349396,75.7292706 C237.235204,66.9318588 238.039513,61.9878588 237.74869,60.8972706 C237.457866,59.8066824 237.094337,58.4616235 236.658101,56.8620941 L247.563984,61.2244471 Z" id="Fill-4" fill="#333333"></path>
            <path d="M572.995968,41.5920412 C574.740909,42.0282765 576.231379,42.3918059 577.467379,42.6826294 C578.698835,42.9779971 582.084203,46.0316441 587.60985,51.8435706 C589.791026,54.6063941 592.117615,57.1556441 594.589615,59.4776882 L594.589615,59.0414529 L597.643262,62.5313353 L599.824438,64.4943941 C599.824438,64.7852176 599.860791,65.1487471 599.933497,65.5849824 C600.006203,66.0212176 601.278556,67.8070559 603.750556,70.9288647 C606.222556,74.0597618 607.822085,76.0546294 608.549144,76.9271 L610.294085,77.1452176 L610.294085,78.4539235 C610.294085,78.7492912 610.548556,79.1491735 611.057497,79.6535706 C611.566438,80.1670559 612.398012,81.0395265 613.56585,82.2709824 C614.729144,83.5115265 615.3426,84.7475265 615.41985,85.9789824 C615.492556,87.2195265 615.710674,88.4555265 616.074203,89.6869824 C616.437732,90.9229824 616.542247,91.7591 616.401379,92.1953353 C616.255968,92.6315706 616.106012,93.2859235 615.965144,94.1583941 L611.384674,96.5576882 L610.075968,98.0845118 C609.348909,98.3798794 608.799071,98.6707029 608.440085,98.9569824 C608.076556,99.2478059 607.640321,99.3614088 607.131379,99.2841588 C606.617894,99.2159971 605.854482,99.2841588 604.841144,99.5022765 C603.823262,99.7203941 603.05985,99.7203941 602.550909,99.5022765 C602.041968,99.2841588 601.533026,99.0660412 601.024085,98.8479235 C600.515144,98.6298059 600.006203,98.3798794 599.497262,98.0845118 C598.983776,97.7982324 598.220365,97.3574529 597.207026,96.7758059 C596.039188,95.4671 595.134909,94.4855706 594.480556,93.8312176 C593.826203,93.1768647 592.917379,91.8681588 591.754085,89.9051 C590.590791,87.9420412 589.572909,85.8017618 588.700438,83.4706294 C587.827968,81.1485853 587.137262,79.7308206 586.628321,79.2173353 C586.119379,78.7083941 585.574085,78.0176882 584.992438,77.1452176 L582.811262,76.4908647 L579.975732,78.2358059 L581.502556,76.2727471 L580.848203,75.6183941 L583.683732,73.8734529 C583.683732,73.4372176 583.715541,73.0009824 583.792791,72.5647471 C583.865497,72.1285118 582.952129,69.6201588 581.066321,65.0396882 C579.175968,60.4592176 577.358321,56.5694529 575.613379,53.3703941 C573.868438,50.1758794 572.450674,48.0628647 571.360085,47.0449824 C570.269497,46.0316441 569.683306,45.4091 569.615144,45.1909824 C569.537894,44.9728647 569.506085,44.5729824 569.506085,43.9913353 L570.596674,43.9913353 L570.160438,43.1188647 L570.378556,42.4645118 L572.995968,41.5920412 Z M537.006556,84.7793353 C535.988674,85.0747029 534.857188,85.4336882 533.625732,85.8699235 C532.385188,86.3061588 531.517262,86.6696882 531.008321,86.9605118 C530.494835,87.2558794 530.026791,87.5421588 529.590556,87.8329824 L529.590556,87.3967471 C529.008909,87.8329824 528.572674,88.12835 528.28185,88.2692176 L528.28185,88.7054529 C531.190085,87.6921147 534.093776,86.3834088 537.006556,84.7793353 Z M509.959968,106.5911 L508.215026,107.899806 L507.996909,107.245453 L509.959968,106.154865 L509.959968,106.5911 Z M502.107732,110.2991 L501.671497,110.517218 L500.580909,111.825924 C500.144674,111.971335 499.781144,112.044041 499.490321,112.044041 L499.708438,112.262159 L498.835968,112.698394 L499.272203,112.262159 L498.181615,112.698394 L497.963497,113.352747 L496.654791,114.0071 L497.309144,112.698394 L502.107732,110.080982 L502.107732,110.2991 Z M495.564203,114.443335 C495.273379,114.297924 495.018909,114.266115 494.800791,114.334276 C494.582674,114.411526 494.110085,114.738703 493.383026,115.315806 C492.651424,115.901997 491.928909,116.406394 491.20185,116.842629 L490.983732,116.406394 L489.238791,117.496982 L489.238791,117.060747 L495.127968,113.788982 L495.564203,114.443335 Z M490.983732,86.9605118 C489.529615,87.8329824 488.002791,88.7827029 486.403262,89.7960412 L486.185144,90.4503941 L491.419968,87.6148647 L490.983732,86.9605118 Z M580.19385,99.3932176 C580.484674,99.5386294 580.739144,99.6885853 580.957262,99.8294529 C581.175379,99.9794088 581.752482,100.520159 582.702203,101.465335 C583.647379,102.415056 584.774321,102.923997 586.083026,102.992159 C587.391732,103.069409 588.591379,103.396585 589.681968,103.973688 C590.772556,104.555335 591.717732,105.173335 592.517497,105.827688 C593.317262,106.482041 594.589615,107.463571 596.334556,108.772276 C597.347894,111.389688 598.188556,113.280041 598.842909,114.443335 C599.497262,115.611174 599.569968,117.278865 599.061026,119.460041 C598.552085,121.641218 598.002247,123.422512 597.425144,124.803924 C596.843497,126.189879 596.475424,127.457688 596.334556,128.620982 C596.189144,129.788821 595.789262,130.802159 595.134909,131.674629 C594.480556,132.5471 594.007968,133.346865 593.717144,134.073924 C593.426321,134.805526 592.985541,135.459879 592.408438,136.036982 C591.826791,136.623174 591.426909,137.313879 591.208791,138.1091 C590.990674,138.913409 590.299968,140.072159 589.136674,141.598982 C587.968835,143.125806 584.774321,147.160982 579.539497,153.704512 L579.975732,153.922629 C580.411968,154.063497 581.175379,154.395218 582.265968,154.904159 C583.356556,155.4131 584.478953,155.958394 585.646791,156.540041 C585.787659,157.412512 585.896718,158.103218 585.973968,158.612159 C586.046674,159.1211 586.551071,159.7391 587.500791,160.466159 C588.445968,161.193218 589.063968,162.465571 589.354791,164.283218 C589.645615,166.100865 589.681968,167.191453 589.46385,167.554982 C589.245732,167.918512 589.063968,168.318394 588.918556,168.754629 C587.464438,169.6271 586.301144,170.499571 585.428674,171.372041 L583.029379,174.861924 L580.411968,177.0431 C579.394085,176.897688 578.630674,176.752276 578.121732,176.606865 C577.612791,176.461453 577.140203,176.4251 576.703968,176.497806 C576.267732,176.570512 575.686085,176.606865 574.959026,176.606865 L576.049615,178.133688 L574.086556,177.697453 L574.086556,178.351806 C573.650321,178.497218 573.359497,178.715335 573.214085,179.006159 L569.724203,178.133688 L569.724203,178.788041 C568.556365,178.060982 567.506674,177.552041 566.561497,177.261218 C565.611776,176.970394 564.343968,176.752276 562.744438,176.606865 C561.144909,176.461453 559.363615,176.388747 557.400556,176.388747 C555.437497,176.388747 553.038203,176.534159 550.202674,176.824982 C547.367144,177.115806 545.803968,177.224865 545.513144,177.152159 C545.222321,177.079453 544.999659,176.897688 544.858791,176.606865 L543.550085,177.479335 L542.677615,177.261218 L542.459497,176.824982 C542.023262,177.261218 541.509776,177.479335 540.932674,177.479335 L540.496438,177.0431 L540.278321,177.479335 C537.801776,177.915571 535.407026,178.206394 533.080438,178.351806 C533.22585,178.788041 533.371262,179.147026 533.516674,179.442394 C533.657541,179.733218 533.916556,180.387571 534.280085,181.405453 C534.643615,182.423335 534.570909,183.513924 534.061968,184.677218 C533.548482,185.840512 533.371262,186.712982 533.516674,187.294629 C533.657541,187.876276 533.698438,188.348865 533.625732,188.712394 C533.548482,189.075924 533.439424,189.475806 533.298556,189.912041 L533.080438,189.912041 L532.207968,190.566394 C531.626321,190.420982 531.044674,190.348276 530.463026,190.348276 C530.463026,191.075335 530.172203,191.729688 529.590556,192.311335 L528.28185,192.311335 L527.409379,193.620041 L526.318791,193.183806 L525.664438,193.401924 L525.882556,195.801218 L524.355732,196.237453 L522.392674,194.710629 L521.302085,195.146865 L521.302085,196.237453 C520.570482,195.946629 519.557144,195.364982 518.248438,194.492512 C516.939732,193.620041 516.067262,193.074747 515.631026,192.856629 C515.194791,192.638512 514.395026,192.238629 513.231732,191.656982 C512.650085,191.220747 512.21385,190.784512 511.923026,190.348276 C511.632203,189.912041 511.123262,188.930512 510.396203,187.403688 C509.6646,185.876865 509.010247,184.895335 508.433144,184.4591 C507.851497,184.022865 507.124438,183.295806 506.251968,182.277924 L504.507026,181.841688 L504.725144,180.969218 L503.416438,180.096747 C503.557306,177.624747 503.557306,175.225453 503.416438,172.898865 L501.017144,170.499571 C500.726321,170.063335 500.544556,169.6271 500.47185,169.190865 C500.3946,168.754629 500.503659,168.463806 500.799026,168.318394 C501.08985,168.172982 501.307968,167.736747 501.453379,167.009688 C501.158012,165.700982 500.944438,164.864865 500.799026,164.501335 C500.653615,164.137806 500.503659,163.592512 500.362791,162.865453 C500.217379,162.138394 499.308556,159.411924 497.636321,154.686041 C495.964085,149.960159 494.473615,146.034041 493.164909,142.907688 C491.856203,139.781335 490.874674,137.750115 490.220321,136.800394 C489.565968,135.859762 488.72985,134.510159 487.711968,132.765218 L485.094556,130.147806 L483.78585,128.620982 L483.78585,128.184747 C484.367497,128.184747 484.949144,127.966629 485.530791,127.530394 C485.239968,126.953291 485.094556,126.439806 485.094556,126.003571 L485.967026,125.567335 L485.748909,124.912982 C486.185144,124.772115 486.585026,124.553997 486.948556,124.258629 C487.312085,123.967806 488.148203,123.967806 489.456909,124.258629 C490.765615,124.553997 491.710791,124.990232 492.292438,125.567335 C492.874085,126.148982 493.455732,126.512512 494.037379,126.657924 C494.614482,126.803335 495.486953,127.244115 496.654791,127.966629 L497.309144,129.057218 L505.161379,136.036982 C506.760909,138.077291 508.215026,139.781335 509.523732,141.162747 C510.832438,142.548703 514.831262,148.251571 521.520203,158.284982 C531.844438,156.685453 537.333732,155.667571 537.988085,155.231335 C538.642438,154.7951 539.3286,154.358865 540.060203,153.922629 C550.384438,143.452982 557.037026,136.441409 560.017968,132.874276 C562.994365,129.316232 565.175541,126.407997 566.561497,124.149571 C567.942909,121.895688 568.851732,120.300703 569.287968,119.350982 C569.724203,118.405806 570.233144,117.210703 570.814791,115.752041 C569.06985,115.752041 567.470321,115.715688 566.016203,115.642982 C564.562085,115.570276 562.380909,115.792938 559.472674,116.297335 C556.559894,116.810821 553.837968,117.387924 551.293262,118.042276 C548.748556,118.696629 545.331379,119.314629 541.041732,119.896276 C536.752085,120.477924 532.239776,121.4231 527.518438,122.731806 C522.792556,124.040512 518.793732,124.912982 515.521968,125.349218 C512.250203,125.785453 510.35985,126.080821 509.850909,126.221688 C509.341968,126.3671 508.723968,126.512512 507.996909,126.657924 L507.342556,127.530394 C506.324674,127.094159 505.411306,126.803335 504.616085,126.657924 C503.816321,126.512512 502.32585,125.82635 500.144674,124.585806 C497.963497,123.35435 496.291262,122.372821 495.127968,121.641218 L496.872909,121.4231 L497.745379,119.678159 C506.03385,115.752041 512.322909,113.320938 516.612556,112.371218 C520.902203,111.430585 524.387541,110.517218 527.082203,109.644747 C529.772321,108.772276 532.062556,108.117924 533.952909,107.681688 C535.838718,107.245453 537.842674,106.736512 539.951144,106.154865 C542.055071,105.577762 545.476791,104.664394 550.202674,103.428394 C554.924012,102.196938 559.109144,101.324468 562.744438,100.810982 C566.375188,100.302041 569.397026,100.192982 571.796321,100.483806 C574.195615,100.779174 575.722438,100.665571 576.376791,100.156629 C577.031144,99.6476882 577.576438,99.3614088 578.012674,99.2841588 C578.448909,99.2159971 579.103262,99.0342324 579.975732,98.7388647 L580.19385,99.3932176 Z M484.003968,118.587571 L482.913379,119.023806 L482.913379,119.460041 L485.530791,118.151335 L485.312674,118.805688 L482.477144,119.896276 L482.259026,119.241924 L481.168438,119.896276 L481.604674,120.332512 C480.877615,120.477924 480.295968,120.700585 479.859732,120.986865 L479.859732,120.550629 L479.205379,120.986865 L473.752438,122.949924 L473.752438,122.077453 C475.061144,121.204982 476.042674,120.550629 476.697026,120.114394 C477.351379,119.678159 478.769144,119.169218 480.950321,118.587571 C483.131497,118.010468 484.290247,117.642394 484.440203,117.496982 L484.003968,118.587571 Z M484.222085,89.5779235 L483.78585,90.4503941 L481.168438,90.4503941 L481.604674,90.6685118 L481.822791,91.1047471 L479.859732,92.4134529 L478.769144,92.1953353 L478.769144,92.6315706 L478.114791,92.4134529 L477.678556,93.5040412 C476.946953,93.7994088 476.151732,93.9402765 475.279262,93.9402765 L474.188674,95.0308647 L471.789379,96.5576882 L471.789379,96.9939235 L485.530791,90.6685118 L485.312674,89.7960412 L485.967026,89.5779235 L485.748909,88.9235706 L484.222085,89.5779235 Z M512.359262,8.00192353 C513.813379,8.29729118 514.899424,8.51540882 515.631026,8.65627647 C516.358085,8.80623235 516.939732,8.69262941 517.375968,8.3291 C517.812203,7.97011471 518.498365,7.92921765 519.448085,8.22004118 C520.393262,8.51540882 521.665615,9.12886471 523.265144,10.0740412 C524.864674,11.0237618 526.173379,11.4599971 527.191262,11.3827471 C528.209144,11.3100412 528.972556,11.4599971 529.481497,11.8189824 C529.990438,12.1825118 530.426674,12.4733353 530.790203,12.6914529 C531.153732,12.9095706 531.626321,13.1685853 532.207968,13.4548647 L532.862321,13.8911 C533.298556,14.0410559 534.825379,14.9498794 537.442791,16.6175706 C540.060203,18.29435 541.732438,19.5621588 542.459497,20.4346294 C543.331968,21.6024676 543.877262,22.3976882 544.095379,22.8339235 C544.313497,23.2701588 544.677026,23.7063941 545.185968,24.1426294 C545.694909,24.5788647 546.167497,25.3831735 546.603732,26.5419235 C547.039968,27.7097618 547.289894,29.0502765 547.367144,30.5771 C547.435306,32.1039235 547.221732,33.7398059 546.712791,35.4847471 C546.20385,37.2296882 545.476791,38.8337618 544.531615,40.2833353 C543.581894,41.7374529 542.859379,43.1961147 542.350438,44.6456882 C541.841497,46.10435 540.605497,47.9174529 538.642438,50.0986294 C536.679379,52.2798059 535.6206,53.52035 535.479732,53.8066294 L535.043497,53.5885118 C534.607262,54.1747029 534.134674,54.6791 533.625732,55.1153353 C533.116791,55.5515706 532.462438,56.2059235 531.662674,57.0783941 C530.862909,57.9508647 530.099497,58.7506294 529.372438,59.4776882 C528.640835,60.2092912 527.627497,61.3725853 526.318791,62.9675706 L526.755026,62.9675706 L525.010085,66.0212176 C525.300909,65.4441147 525.478129,65.0396882 525.555379,64.8215706 C525.628085,64.6034529 525.664438,64.4625853 525.664438,64.3853353 L525.664438,64.0581588 L524.355732,64.9306294 L521.520203,68.8567471 L519.339026,71.0379235 L516.721615,74.0915706 C529.663262,69.0021588 536.352203,66.2802324 536.788438,65.9121588 C537.224674,65.5531735 537.660909,65.1487471 538.097144,64.7125118 L540.060203,64.9306294 C540.205615,64.6398059 540.496438,64.2081147 540.932674,63.6219235 C541.368909,63.0448206 541.587026,62.6085853 541.587026,62.3132176 L542.459497,61.2226294 L543.768203,59.6958059 C544.640674,59.1187029 545.58585,58.9687471 546.603732,59.2595706 L547.258085,57.9508647 L547.912438,58.3871 C548.348674,58.2462324 548.566791,58.1371735 548.566791,58.0599235 C548.566791,57.9872176 548.748556,57.9872176 549.112085,58.0599235 C549.471071,58.1371735 549.948203,58.0962765 550.52985,57.9508647 L550.52985,56.4240412 L550.747968,56.6421588 L550.966085,57.7327471 L552.056674,57.9508647 L552.711026,56.6421588 L552.711026,57.2965118 L553.801615,57.9508647 L554.23785,56.6421588 C554.674085,57.0783941 555.033071,57.3737618 555.328438,57.5146294 C555.619262,57.6645853 555.837379,57.7327471 555.982791,57.7327471 C556.128203,57.7327471 556.273615,57.6645853 556.419026,57.5146294 C556.559894,57.3737618 556.927968,57.0783941 557.509615,56.6421588 L558.382085,57.2965118 L558.382085,58.1689824 C558.963732,58.7506294 559.472674,59.1914088 559.908909,59.4776882 L560.781379,59.0414529 L561.65385,59.9139235 C562.380909,59.9139235 563.326085,60.0229824 564.489379,60.2411 C565.652674,60.4592176 566.634203,60.7136882 567.433968,61.0045118 C568.233732,61.2998794 568.997144,61.7679235 569.724203,62.4222765 C570.451262,63.0766294 571.759968,64.2081147 573.650321,65.8031 L574.304674,67.1118059 L573.214085,69.2929824 L571.905379,69.7292176 L573.432203,70.3835706 L571.905379,72.1285118 L570.596674,72.3466294 L569.942321,73.6553353 L569.06985,73.8734529 L567.979262,75.6183941 L567.106791,76.2727471 L566.670556,76.9271 L565.579968,76.7089824 L564.707497,77.3633353 C565.143732,77.9449824 565.507262,78.3130559 565.798085,78.4539235 C566.084365,78.6038794 566.197968,78.7083941 566.125262,78.7811 C566.052556,78.85835 566.016203,79.1855265 566.016203,79.7626294 L567.106791,80.1988647 L567.324909,80.6351 C566.593306,80.9304676 565.829894,81.0713353 565.034674,81.0713353 C564.234909,81.0713353 559.254556,82.7481147 550.093615,86.0880412 C550.384438,85.8017618 550.638909,85.5836441 550.857026,85.4336882 C551.075144,85.2928206 551.402321,85.2155706 551.838556,85.2155706 C552.274791,85.2155706 552.711026,85.03835 553.147262,84.6702765 C553.583497,84.3112912 553.983379,84.1658794 554.346909,84.2340412 C554.710438,84.3112912 555.073968,84.1249824 555.437497,83.6887471 C555.796482,83.2525118 556.237262,83.0343941 556.746203,83.0343941 C557.255144,83.0343941 557.8686,82.8571735 558.600203,82.4891 C559.327262,82.1301147 560.049776,81.9119971 560.781379,81.8347471 C561.508438,81.7620412 562.012835,81.6938794 562.308203,81.6166294 C562.599026,81.5439235 562.962556,81.2894529 563.398791,80.8532176 L563.616909,80.6351 L562.744438,80.6351 L561.871968,79.9807471 L561.65385,80.4169824 L560.127026,81.0713353 L560.345144,80.6351 L561.435732,80.1988647 C561.144909,80.0579971 560.890438,79.9489382 560.672321,79.8716882 C560.454203,79.8035265 560.049776,79.9125853 559.472674,80.1988647 C558.891026,80.4942324 557.94585,80.9986294 556.637144,81.7256882 L557.291497,81.0713353 L556.637144,80.8532176 L556.419026,81.0713353 C555.546556,81.5075706 554.964909,81.7256882 554.674085,81.7256882 C554.378718,81.7256882 554.019732,81.8347471 553.583497,82.0528647 C553.147262,82.2709824 552.274791,82.56635 550.966085,82.9253353 C549.657379,83.2888647 548.312321,83.7978059 546.930909,84.4521588 C545.544953,85.1065118 544.127188,85.5836441 542.677615,85.8699235 C541.223497,86.1652912 540.132909,86.5606294 539.40585,87.0695706 C538.674247,87.5830559 537.988085,87.8738794 537.333732,87.9420412 C536.679379,88.0192912 536.134085,88.2374088 535.69785,88.5963941 C535.261615,88.9599235 534.389144,89.3598059 533.080438,89.7960412 L533.080438,89.5779235 L536.352203,87.6148647 L535.152556,87.6148647 C534.934438,87.6148647 534.498203,87.7239235 533.84385,87.9420412 C533.189497,88.1601588 532.062556,88.7054529 530.463026,89.5779235 L530.026791,88.7054529 L529.372438,88.9235706 C528.936203,89.5052176 528.499968,90.0914088 528.063732,90.6685118 C526.895894,91.2501588 525.805306,91.83635 524.791968,92.4134529 L524.355732,92.1953353 C523.624129,92.7815265 522.828909,93.3222765 521.956438,93.8312176 C521.083968,94.3447029 520.066085,94.9218059 518.902791,95.5761588 C517.734953,96.2305118 516.685262,96.7758059 515.740085,97.2120412 C514.790365,97.6482765 514.026953,98.1617618 513.44985,98.7388647 L513.44985,98.3026294 L512.795497,99.1751 L511.050556,100.047571 L510.614321,99.1751 L511.923026,98.0845118 L510.396203,98.7388647 C510.105379,99.4704676 509.923615,100.047571 509.850909,100.483806 C509.773659,100.920041 509.632791,101.174512 509.414674,101.247218 C509.196556,101.324468 509.010247,101.506232 508.869379,101.792512 L508.433144,100.265688 L507.124438,100.920041 L507.124438,102.228747 L507.560674,101.574394 L507.560674,102.010629 L506.906321,102.664982 L506.688203,101.574394 L504.943262,103.755571 C503.925379,104.341762 502.980203,104.846159 502.107732,105.282394 L500.580909,107.463571 C497.668129,109.208512 495.52785,110.485409 494.146438,111.280629 C492.760482,112.084938 491.928909,112.480276 491.638085,112.480276 L490.765615,112.480276 L490.765615,112.916512 L489.238791,113.570865 L489.020674,114.225218 L488.584438,114.0071 C485.821615,115.315806 483.858556,116.188276 482.695262,116.624512 C481.531968,117.060747 480.623144,117.533335 479.968791,118.042276 C479.314438,118.555762 478.551026,118.882938 477.678556,119.023806 C476.806085,119.169218 476.183541,119.428232 475.824556,119.787218 C475.461026,120.155291 474.765776,120.409762 473.752438,120.550629 C472.734556,120.700585 470.444321,121.609409 466.881732,123.2771 C463.3146,124.949335 460.956203,126.330747 459.792909,127.421335 C458.629615,128.511924 457.575379,129.348041 456.630203,129.929688 C455.685026,130.511335 454.848909,130.661291 454.12185,130.365924 C453.394791,130.079644 452.667732,129.897879 451.940674,129.820629 C451.213615,129.747924 450.631968,129.493453 450.195732,129.057218 C449.759497,128.620982 449.432321,128.371056 449.214203,128.293806 C448.996085,128.2211 448.668909,128.116585 448.232674,127.966629 C447.796438,127.530394 447.501071,127.130512 447.360203,126.766982 C447.214791,126.407997 446.846718,126.112629 446.269615,125.894512 C445.687968,125.676394 445.428953,125.062938 445.506203,124.040512 C445.574365,123.027174 445.179026,120.877806 444.306556,117.606041 C443.434085,114.334276 442.525262,112.1531 441.580085,111.062512 C440.634909,109.971924 439.648835,108.917688 438.635497,107.899806 L439.507968,107.899806 L438.417379,106.5911 L438.199262,107.245453 C438.05385,106.522938 437.903894,105.718629 437.763026,104.846159 L438.199262,104.628041 L438.199262,105.064276 L438.853615,104.628041 L439.507968,105.064276 L440.598556,104.628041 L440.598556,103.537453 L441.689144,103.755571 L442.125379,103.101218 L441.471026,102.664982 L441.907262,101.792512 L440.598556,100.920041 L441.471026,100.047571 C442.634321,99.6113353 443.793071,99.1432912 444.960909,98.6298059 C446.124203,98.1208647 446.846718,97.7982324 447.142085,97.6482765 L447.578321,96.1214529 L448.668909,97.4301588 C449.105144,96.9939235 449.682247,96.7031 450.41385,96.5576882 L450.850085,96.9939235 L451.722556,96.7758059 L452.158791,97.8663941 C452.595026,97.8663941 453.103968,97.9754529 453.685615,98.1935706 C454.267262,98.4116882 454.698953,98.6298059 454.994321,98.8479235 C455.285144,99.0660412 455.721379,99.3932176 456.303026,99.8294529 L461.755968,95.0308647 C467.281615,89.3598059 470.403424,86.1652912 471.135026,85.4336882 C471.862085,84.7066294 472.734556,83.6887471 473.752438,82.3800412 L482.477144,73.8734529 L485.312674,70.1654529 L486.403262,69.2929824 C492.801379,60.5682765 497.527262,54.0656441 500.580909,49.7714529 C503.634556,45.48635 506.361026,41.0467471 508.760321,36.4662765 C511.159615,31.8858059 512.868203,28.3959235 513.886085,25.9966294 C514.899424,23.5973353 515.485615,22.0387029 515.631026,21.3071 C515.771894,20.5800412 515.92185,19.5621588 516.067262,18.2534529 C513.886085,15.4951735 512.063894,12.5823941 510.614321,9.52874706 L511.050556,8.65627647 L512.141144,8.87439412 C512.141144,8.58357059 512.21385,8.29729118 512.359262,8.00192353 Z" id="Fill-6" fill="#333333"></path>
        </g>
    </g>
</svg>