<?xml version="1.0" encoding="UTF-8"?>
<svg width="918px" height="68px" viewBox="0 0 918 68" version="1.1" 
    xmlns="http://www.w3.org/2000/svg" 
    xmlns:xlink="http://www.w3.org/1999/xlink">
    <!-- Generator: Sketch 48.2 (47327) - http://www.bohemiancoding.com/sketch -->
    <title>Page 1</title>
    <desc>Created with Sketch.</desc>
    <defs>
        <polygon id="path-1" points="0 0.96 54.7918 0.96 54.7918 67.4157 0 67.4157"></polygon>
        <polygon id="path-3" points="0.1595 0.1997 51.352 0.1997 51.352 41.2927526 0.1595 41.2927526"></polygon>
    </defs>
    <g id="Page-1" stroke="none" stroke-width="1" fill="none" fill-rule="evenodd">
        <g transform="translate(0.000000, -1.000000)">
            <g id="Group-3" transform="translate(0.000000, 0.040000)">
                <mask id="mask-2" fill="white">
                    <use xlink:href="#path-1"></use>
                </mask>
                <g id="Clip-2"></g>
                <path d="M28.9438,49.1997 C31.9198,49.1997 34.9438,49.6077 38.0158,50.4237 L38.8078,51.3597 L38.0158,52.4397 C35.0388,51.9607 32.0638,51.7197 29.0878,51.7197 L27.2878,50.9997 L27.2878,49.7757 L28.9438,49.1997 Z M36.0718,0.9597 C36.6478,1.1037 37.2958,1.2967 38.0158,1.5357 L38.3758,2.9757 L37.5118,7.2237 L38.0158,7.4397 C39.3118,6.9607 40.6798,6.7677 42.1198,6.8637 C42.9838,7.8247 43.1748,9.0237 42.6958,10.4637 C41.2558,13.0557 40.1278,15.7197 39.3118,18.4557 C34.2718,29.3037 30.9348,35.2317 29.3038,36.2397 L27.6478,37.9677 C25.7758,39.7927 23.8798,41.4007 21.9598,42.7917 C20.9518,42.5527 21.7678,41.0637 24.4078,38.3277 L25.1998,37.7517 C25.8228,36.7437 26.2078,35.8557 26.3518,35.0877 C29.6158,31.3917 31.8478,27.4557 33.0478,23.2797 L26.2798,24.2157 L25.8478,23.4237 L26.9278,21.5517 C29.8078,20.8317 32.5438,20.1597 35.1358,19.5357 C36.4788,16.7997 37.7518,13.7757 38.9518,10.4637 C37.7518,10.4637 36.6718,10.8237 35.7118,11.5437 L34.7038,12.4077 C33.8398,12.3117 33.1668,11.9517 32.6878,11.3277 L32.4718,10.6077 C33.3358,8.9767 34.1278,7.1767 34.8478,5.2077 L34.8478,1.8957 L36.0718,0.9597 Z M40.1758,24.7917 C42.4798,25.1767 44.4708,25.8967 46.1518,26.9517 L46.3678,33.8637 C48.7678,33.3847 50.9998,33.0247 53.0638,32.7837 L53.7118,33.2877 L54.6478,33.2877 L54.7918,34.3677 L52.9198,35.4477 C50.8558,35.3517 48.5998,35.5447 46.1518,36.0237 L46.2238,37.9677 C46.2238,46.2727 46.1038,54.4317 45.8638,62.4477 C45.8638,64.4637 45.4318,66.1197 44.5678,67.4157 L42.4798,67.4157 L41.0398,65.9757 L39.5278,64.8957 C38.1838,63.7437 37.6318,62.3277 37.8718,60.6477 L39.5278,60.6477 L40.8958,62.2317 L41.9758,62.9517 C42.6958,61.2707 43.0558,59.3037 43.0558,57.0477 C43.0558,50.9997 42.9838,44.8797 42.8398,38.6877 C41.0638,38.7847 39.2868,39.0727 37.5118,39.5517 L36.0718,40.9197 C33.8158,41.9277 31.6078,42.9117 29.4478,43.8717 L28.3678,44.0157 L27.8638,44.5917 C25.3678,45.7437 22.8708,46.2007 20.3758,45.9597 L19.6558,44.7357 C21.0478,44.4007 22.5358,44.1127 24.1198,43.8717 C30.3118,41.2327 36.5508,38.4247 42.8398,35.4477 L42.6958,28.3917 L41.9758,27.4557 L39.9598,26.7357 C39.4308,26.1127 39.5038,25.4647 40.1758,24.7917 Z M8.9278,13.6317 C9.1678,13.8727 9.4558,14.0397 9.7918,14.1357 C11.2788,13.8007 12.8398,13.8727 14.4718,14.3517 C16.1998,15.5527 17.2078,17.0877 17.4958,18.9597 C16.8228,22.5597 16.7508,26.1597 17.2798,29.7597 C16.1278,38.0647 15.3598,46.2967 14.9758,54.4557 L14.4718,55.8237 C13.5108,56.3997 12.6238,56.2557 11.8078,55.3917 C11.1838,53.6637 10.7028,51.9357 10.3678,50.2077 L10.7278,47.7597 L12.4558,47.6157 C12.8398,44.7357 13.0788,41.7607 13.1758,38.6877 L12.4558,38.4717 C9.7198,42.7917 6.6718,46.7767 3.3118,50.4237 C2.0628,50.9047 1.0078,50.7837 0.1438,50.0637 L-0.0002,48.8397 C1.0548,46.9207 1.9678,44.8327 2.7358,42.5757 C3.2638,40.3207 3.3118,38.0157 2.8798,35.6637 L1.0798,34.0077 L0.8638,32.7837 C2.4948,32.6397 3.9348,33.1687 5.1838,34.3677 L6.0478,36.0237 C5.8068,38.6157 5.6878,41.1127 5.6878,43.5117 C8.4238,40.2967 11.0398,36.9597 13.5358,33.5037 C13.7758,27.8877 13.7268,22.2967 13.3918,16.7277 L11.6638,15.6477 C10.6558,15.8887 9.8638,15.6477 9.2878,14.9277 L8.9278,13.6317 Z" id="Fill-1" fill="#666666" mask="url(#mask-2)"></path>
            </g>
            <path d="M117.0718,21.8076 C119.4718,22.0486 121.7038,22.9356 123.7678,24.4716 C124.1028,25.5766 123.9838,26.5366 123.4078,27.3516 L121.5358,27.9996 C120.5748,27.5676 119.6388,27.1836 118.7278,26.8476 C118.1518,25.9836 118.3428,25.2406 119.3038,24.6156 L118.9438,24.2556 L118.2238,24.2556 L117.8638,23.8956 C116.3758,24.0396 114.9358,24.1606 113.5438,24.2556 C110.2318,27.3766 106.5348,29.4156 102.4558,30.3756 C101.0628,30.3756 99.7438,30.1366 98.4958,29.6556 L96.7678,28.2156 L95.6878,25.5516 L97.2718,23.8956 L97.9918,23.8956 C98.2318,24.9036 98.5918,25.7676 99.0718,26.4876 C100.0318,27.7366 101.2798,28.3126 102.8158,28.2156 C106.4158,26.6806 109.9438,24.8566 113.3998,22.7436 L117.0718,21.8076 Z M110.5198,29.6556 L112.8238,30.9516 C114.9358,33.9286 117.0958,36.9046 119.3038,39.8796 C120.0718,40.8876 120.2398,41.7516 119.8078,42.4716 C118.3678,43.3356 116.9278,43.6486 115.4878,43.4076 C114.1918,44.2716 112.8708,44.7516 111.5278,44.8476 L102.5998,46.0716 C98.7118,45.4956 95.1588,44.2476 91.9438,42.3276 C88.8718,39.5916 86.9758,36.1606 86.2558,32.0316 L87.8398,31.0956 L88.7038,31.6716 C89.9038,34.0246 91.2708,36.2796 92.8078,38.4396 C95.3518,40.8876 98.5678,42.2326 102.4558,42.4716 C104.8558,42.4716 107.3038,42.4246 109.7998,42.3276 C111.9598,42.3276 113.9038,41.7516 115.6318,40.5996 C114.4798,39.4956 114.1438,38.3446 114.6238,37.1436 C113.6628,35.8476 112.7038,34.5286 111.7438,33.1836 L111.1678,32.0316 L110.1598,31.0956 L109.4398,29.6556 L110.5198,29.6556 Z M74.7358,33.1836 C75.3598,33.1836 75.9118,33.4486 76.3918,33.9756 C76.2478,35.9446 76.1758,37.7916 76.1758,39.5196 L76.6078,39.8796 L77.4718,38.2236 L78.0478,38.2236 L79.1998,36.9276 L80.4958,36.9276 L80.8558,37.6476 C79.4638,40.5276 78.4548,43.4556 77.8318,46.4316 C76.7268,47.1516 75.6468,47.4396 74.5918,47.2956 L73.2238,45.7836 C72.9838,41.8486 73.1038,37.8406 73.5838,33.7596 L74.7358,33.1836 Z" id="Fill-4" fill="#666666"></path>
            <path d="M188.208,16.9838 C188.831,18.1358 189.144,19.3848 189.144,20.7278 L187.056,24.2558 L182.016,28.5758 C180.096,30.0158 178.128,30.5448 176.112,30.1598 L176.112,29.4398 L179.28,27.3518 C181.487,25.5278 183.479,23.3198 185.256,20.7278 L185.76,16.9838 L186.696,16.6238 L188.208,16.9838 Z M167.904,16.4078 C170.304,16.5518 172.559,17.3198 174.672,18.7118 L175.536,22.1678 C174.816,28.3598 174.528,34.5048 174.672,40.5998 C174.528,42.5678 175.079,44.2248 176.328,45.5678 L177.768,45.7838 C181.751,44.1998 185.976,43.2888 190.44,43.0478 L194.328,43.7678 L195.264,44.7038 L194.112,46.5758 C191.52,47.7758 188.975,48.8078 186.48,49.6718 L183.96,49.6718 C183.479,49.1918 183.479,48.7128 183.96,48.2318 C185.544,47.8478 187.08,47.1768 188.568,46.2158 L188.568,45.5678 C185.015,46.3848 181.536,47.3208 178.128,48.3758 C176.544,48.7608 175.151,48.5918 173.952,47.8718 C172.176,46.2408 171.288,44.1518 171.288,41.6078 C171.432,34.5998 171.623,27.5678 171.864,20.5118 L170.712,19.2878 L167.76,17.9198 C167.375,17.3918 167.423,16.8878 167.904,16.4078 Z M149.688,24.6158 C151.704,25.2398 153.72,26.1038 155.736,27.2078 L156.6,30.7358 L161.64,29.2958 C162.839,29.0558 163.968,29.2238 165.024,29.7998 L165.024,30.9518 C162.384,31.8158 159.696,32.5118 156.96,33.0398 L156.24,33.5438 C155.472,37.8638 154.968,42.1598 154.728,46.4318 L155.088,47.1518 C157.2,46.6718 159.072,45.5438 160.704,43.7678 L160.704,42.1118 L162,40.9598 L162.936,41.6078 C163.032,42.3278 163.392,42.9288 164.016,43.4078 C163.631,44.8478 162.839,46.0968 161.64,47.1518 C159.624,48.5918 157.439,49.5528 155.088,50.0318 C153.744,50.4638 152.592,50.1758 151.632,49.1678 C151.488,43.4558 151.967,37.7448 153.072,32.0318 L152.712,29.0798 L149.904,26.9918 L148.824,24.9758 L149.688,24.6158 Z" id="Fill-6" fill="#666666"></path>
            <path d="M261.0718,21.8076 C263.4718,22.0486 265.7038,22.9356 267.7678,24.4716 C268.1028,25.5766 267.9838,26.5366 267.4078,27.3516 L265.5358,27.9996 C264.5748,27.5676 263.6388,27.1836 262.7278,26.8476 C262.1518,25.9836 262.3428,25.2406 263.3038,24.6156 L262.9438,24.2556 L262.2238,24.2556 L261.8638,23.8956 C260.3758,24.0396 258.9358,24.1606 257.5438,24.2556 C254.2318,27.3766 250.5348,29.4156 246.4558,30.3756 C245.0628,30.3756 243.7438,30.1366 242.4958,29.6556 L240.7678,28.2156 L239.6878,25.5516 L241.2718,23.8956 L241.9918,23.8956 C242.2318,24.9036 242.5918,25.7676 243.0718,26.4876 C244.0318,27.7366 245.2798,28.3126 246.8158,28.2156 C250.4158,26.6806 253.9438,24.8566 257.3998,22.7436 L261.0718,21.8076 Z M254.5198,29.6556 L256.8238,30.9516 C258.9358,33.9286 261.0958,36.9046 263.3038,39.8796 C264.0718,40.8876 264.2398,41.7516 263.8078,42.4716 C262.3678,43.3356 260.9278,43.6486 259.4878,43.4076 C258.1918,44.2716 256.8708,44.7516 255.5278,44.8476 L246.5998,46.0716 C242.7118,45.4956 239.1588,44.2476 235.9438,42.3276 C232.8718,39.5916 230.9758,36.1606 230.2558,32.0316 L231.8398,31.0956 L232.7038,31.6716 C233.9038,34.0246 235.2708,36.2796 236.8078,38.4396 C239.3518,40.8876 242.5678,42.2326 246.4558,42.4716 C248.8558,42.4716 251.3038,42.4246 253.7998,42.3276 C255.9598,42.3276 257.9038,41.7516 259.6318,40.5996 C258.4798,39.4956 258.1438,38.3446 258.6238,37.1436 C257.6628,35.8476 256.7038,34.5286 255.7438,33.1836 L255.1678,32.0316 L254.1598,31.0956 L253.4398,29.6556 L254.5198,29.6556 Z M218.7358,33.1836 C219.3598,33.1836 219.9118,33.4486 220.3918,33.9756 C220.2478,35.9446 220.1758,37.7916 220.1758,39.5196 L220.6078,39.8796 L221.4718,38.2236 L222.0478,38.2236 L223.1998,36.9276 L224.4958,36.9276 L224.8558,37.6476 C223.4638,40.5276 222.4548,43.4556 221.8318,46.4316 C220.7268,47.1516 219.6468,47.4396 218.5918,47.2956 L217.2238,45.7836 C216.9838,41.8486 217.1038,37.8406 217.5838,33.7596 L218.7358,33.1836 Z" id="Fill-8" fill="#666666"></path>
            <path d="M291.8159,49.456 L293.3999,50.68 L294.4799,52.12 C293.4229,54.904 292.0549,57.448 290.3759,59.752 L288.5039,60.04 L287.5679,59.176 C288.5269,57.687 289.3679,55.696 290.0879,53.2 L288.5039,52.984 C287.3039,51.976 287.3519,50.849 288.6479,49.6 L290.3759,49.312 L291.8159,49.456 Z" id="Fill-10" fill="#666666"></path>
            <path d="M398.2319,10.144 C400.9679,10.768 403.7759,11.488 406.6559,12.304 L409.2479,13.744 C409.8719,14.656 409.9919,15.497 409.6079,16.264 C408.7919,17.225 407.8079,17.704 406.6559,17.704 L402.5519,17.344 C401.5909,16.96 401.3999,16.408 401.9759,15.688 C403.1279,15.929 404.2549,15.736 405.3599,15.112 L404.6399,14.248 L397.8719,11.944 C397.2959,11.704 397.0549,11.224 397.1519,10.504 L398.2319,10.144 Z M384.4799,13.6 L387.8639,15.688 L388.2239,16.768 L386.5679,18.712 C384.2149,20.296 381.8629,21.688 379.5119,22.888 C377.3029,23.656 375.1439,24.304 373.0319,24.832 L372.4559,23.68 L376.4159,21.808 L376.4159,20.728 L376.7759,21.232 C378.2159,20.992 379.7039,20.272 381.2399,19.072 L383.7599,16.768 L382.4639,14.248 L382.8959,13.384 L384.4799,13.6 Z M376.4159,44.992 L371.7359,48.232 L372.4559,48.952 L373.6079,49.456 L375.9119,52.48 C376.4879,50.224 376.7759,47.8 376.7759,45.208 L376.4159,44.992 Z M387.1439,1.36 C387.6239,1.504 388.1039,1.768 388.5839,2.152 C389.9749,4.024 390.9839,6.04 391.6079,8.2 C391.7519,14.057 392.6879,19.72 394.4159,25.192 L401.1119,23.896 C402.1679,23.993 403.3439,24.112 404.6399,24.256 C405.5039,25.217 406.3429,26.128 407.1599,26.992 L406.6559,29.296 C404.9279,30.496 403.2479,30.352 401.6159,28.864 L401.4719,28.144 L402.6959,27.352 L399.9599,26.056 C397.9909,26.056 396.1439,26.416 394.4159,27.136 C395.0399,32.272 396.4319,37.144 398.5919,41.752 C400.2719,38.776 401.6389,35.608 402.6959,32.248 C403.6069,31.816 404.5679,31.888 405.5759,32.464 L405.7199,34.12 C403.8479,38.056 401.9999,41.8 400.1759,45.352 L402.3359,50.824 C404.5909,54.568 407.0879,58.096 409.8239,61.408 L411.2639,54.28 L411.9839,52.84 L412.9919,53.2 C413.4709,56.319 413.7119,59.415 413.7119,62.488 C414.2399,63.879 414.6709,65.248 415.0079,66.592 L414.2879,67.888 C412.4159,68.56 410.9999,68.079 410.0399,66.448 C405.1439,60.976 401.2079,54.953 398.2319,48.376 L397.7279,48.232 C395.3279,50.201 392.8069,51.736 390.1679,52.84 L388.0799,52.48 L387.8639,51.76 C389.4959,51.281 390.9839,50.464 392.3279,49.312 L396.4319,44.848 L396.0719,42.832 C394.1999,37.984 392.7109,32.968 391.6079,27.784 C388.7749,28.408 385.9919,29.2 383.2559,30.16 L381.5999,31.456 C381.3589,34.048 380.9519,36.593 380.3759,39.088 L380.8799,39.448 C383.1839,38.008 385.7519,36.712 388.5839,35.56 L389.1599,36.064 L387.7199,37.648 L386.5679,38.008 L385.0559,39.448 C383.3279,40.553 381.7189,41.68 380.2319,42.832 C379.6079,47.92 379.3679,52.936 379.5119,57.88 L378.5759,58.744 L377.2799,58.96 L374.6879,56.44 C373.6799,54.28 372.3589,52.36 370.7279,50.68 C368.8069,50.536 366.9119,50.776 365.0399,51.4 L363.5279,50.68 C363.0469,50.008 363.1679,49.36 363.8879,48.736 L376.4159,42.112 L376.9199,41.104 L377.6399,33.184 L376.4159,33.184 C371.5669,35.776 366.5759,37.816 361.4399,39.304 L359.8559,38.944 L358.7039,37.792 L359.4239,35.2 L360.2159,35.2 C360.2159,35.776 360.3829,36.352 360.7199,36.928 L363.1679,36.928 L376.5599,31.096 L377.2799,30.376 C375.8869,29.896 374.5189,29.393 373.1759,28.864 C372.5999,27.856 372.7919,26.992 373.7519,26.272 C376.3439,26.992 378.8869,28 381.3839,29.296 C384.5029,28.097 387.7199,27.017 391.0319,26.056 L391.2479,24.976 C389.9519,19.984 389.1829,14.968 388.9439,9.928 C388.2239,7.96 387.5039,5.896 386.7839,3.736 C386.3029,2.92 386.4239,2.128 387.1439,1.36 Z" id="Fill-12" fill="#666666"></path>
            <path d="M480.4556,20.728 C482.8076,21.113 485.0396,21.856 487.1516,22.96 C487.0086,25.792 486.5756,28.624 485.8556,31.456 C485.9996,40.528 485.7596,49.528 485.1366,58.456 L483.4076,60.184 L481.9686,60.4 C479.5666,57.52 477.4556,54.472 475.6326,51.256 L475.6326,49.888 C476.2556,49.744 476.8796,49.864 477.5046,50.248 L479.8806,52.552 C480.1676,53.369 480.6726,54.04 481.3926,54.568 L481.9686,54.568 C482.4466,46.168 482.6876,37.624 482.6876,28.936 L483.4076,24.472 L480.3116,22.96 C476.8076,24.448 473.4236,26.081 470.1596,27.856 L466.9206,27.856 L466.9206,26.632 C470.2786,25.577 473.5676,24.04 476.7836,22.024 L480.4556,20.728 Z M463.5356,20.224 L464.9766,21.088 L465.1916,22.024 L464.6156,22.744 L462.8156,23.392 C460.9436,22.864 459.1436,22.288 457.4156,21.664 C456.7436,21.185 456.6956,20.584 457.2716,19.864 L463.5356,20.224 Z M458.2076,33.04 L460.5126,34.84 C461.2786,41.032 461.2316,47.177 460.3676,53.272 C459.2636,53.608 458.3516,53.416 457.6326,52.696 C457.7276,47.608 457.9206,42.472 458.2076,37.288 L457.4156,35.776 L454.6076,34.12 L454.2476,33.04 L455.1846,32.464 L458.2076,33.04 Z M448.4876,7.192 C449.8316,7.528 451.1756,7.936 452.5196,8.416 C454.0556,10.816 454.1996,13.384 452.9516,16.12 C450.9826,20.681 448.7996,25.073 446.3996,29.296 L445.8956,29.512 C444.8886,31.096 443.9516,32.632 443.0886,34.12 L444.8156,34.84 L446.7606,36.928 C446.9996,40.048 447.1916,43.145 447.3366,46.216 L447.9116,46.216 C448.4396,44.968 449.1836,43.865 450.1436,42.904 L450.8636,42.904 C450.8636,44.104 450.7436,45.28 450.5046,46.432 C448.9206,50.752 447.2646,54.809 445.5356,58.6 L443.2316,58.6 L442.5126,57.376 C443.2786,53.056 443.8546,48.64 444.2396,44.128 C444.4796,41.632 444.0966,39.304 443.0886,37.144 L441.0716,36.352 L440.3516,37.144 L435.0966,42.184 L433.5836,42.184 L433.3676,41.608 C434.5196,40.456 435.6466,39.16 436.7516,37.72 L437.4726,37.504 C438.7676,35.152 440.4476,32.849 442.5126,30.592 C443.2786,28.576 444.3356,26.728 445.6806,25.048 C447.1676,21.832 448.6066,18.544 449.9996,15.184 C450.2396,12.352 449.4246,9.809 447.5526,7.552 L448.4876,7.192 Z" id="Fill-14" fill="#666666"></path>
            <path d="M543.5278,42.832 C546.5038,43.36 549.4788,44.344 552.4558,45.784 C553.1758,45.976 553.9198,45.904 554.6878,45.568 L554.6878,46.576 L557.9998,51.04 L558.7198,51.616 L558.9358,53.776 L557.9998,54.712 L555.9118,54.712 L555.0488,53.776 L553.8958,53.632 L553.7518,52.912 L552.4558,51.976 L552.4558,50.032 L549.7918,47.512 C547.1998,46.792 544.8468,45.665 542.7358,44.128 L542.5198,43.624 L543.5278,42.832 Z M544.4648,10.864 L545.9038,12.16 C544.5598,16.24 542.6388,19.984 540.1438,23.392 L539.7838,23.536 L534.0958,29.656 L533.2318,30.016 C532.6558,30.736 532.2968,31.504 532.1518,32.32 C534.2628,30.928 536.5678,29.848 539.0638,29.08 C540.1678,28.984 541.2708,29.177 542.3758,29.656 L542.3758,30.592 C540.1678,32.561 537.6958,33.929 534.9598,34.696 C532.2238,35.032 529.6068,35.56 527.1118,36.28 L525.8878,35.776 L525.8878,34.48 L527.9038,33.04 C531.5988,28.672 535.3198,24.208 539.0638,19.648 C540.3118,17.632 541.2238,15.497 541.7998,13.24 C536.7598,14.392 531.7438,15.641 526.7518,16.984 C526.2718,16.648 526.1508,16.168 526.3918,15.544 L529.4158,14.104 L543.3838,10.72 L544.4648,10.864 Z M513.7918,17.92 C517.1038,18.256 520.1288,19.552 522.8638,21.808 C524.1598,24.929 524.8548,28.144 524.9518,31.456 C524.5198,32.608 524.5918,33.808 525.1678,35.056 L524.1598,37.288 L522.1438,37.648 L521.0638,36.496 C520.6788,34.192 520.7278,31.72 521.2078,29.08 C520.8718,27.112 520.2478,25.264 519.3368,23.536 L518.0398,22.744 L516.9598,21.664 C515.6638,20.8 514.2968,20.177 512.8558,19.792 L512.8558,18.424 L513.7918,17.92 Z M516.5998,47.872 L516.7438,48.952 C515.7358,50.728 514.6788,52.336 513.5758,53.776 C510.4558,55.648 507.6728,55.36 505.2238,52.912 C504.7438,51.568 504.9828,50.248 505.9438,48.952 L506.5918,48.808 C506.8318,49.769 507.3588,50.584 508.1758,51.256 C509.4238,51.592 510.7438,51.472 512.1358,50.896 L513.7918,48.952 L515.3758,47.512 L516.5998,47.872 Z" id="Fill-16" fill="#666666"></path>
            <path d="M610.3442,19.0717 C608.9042,19.2157 607.5832,19.5287 606.3842,20.0077 L605.8802,25.1197 L606.7432,25.1197 L611.5682,20.2237 L611.5682,19.2877 L610.3442,19.0717 Z M608.6882,29.1517 L608.1842,29.7277 L606.3842,29.9437 C605.7112,30.8077 605.6392,31.6477 606.1672,32.4637 L606.8882,32.1037 L609.2642,29.7277 L608.9042,29.2957 L608.6882,29.1517 Z M618.5522,7.2637 C619.1752,7.5047 619.9442,7.6957 620.8562,7.8397 L621.3602,9.9997 L620.6402,11.7277 C620.3032,14.5607 619.8482,17.3207 619.2722,20.0077 C618.3112,27.7367 617.7112,35.4407 617.4722,43.1197 C616.6082,44.1277 615.6002,44.3207 614.4482,43.6957 L613.0082,41.7517 C612.6232,39.6887 612.0722,37.6007 611.3522,35.4877 L606.5282,37.6477 L605.5202,38.6557 L604.4402,39.2317 L602.6402,38.8717 C602.1592,33.7847 602.1592,28.3847 602.6402,22.6717 L603.3602,18.9277 C601.9672,18.4487 601.5352,17.6567 602.0642,16.5517 C603.8872,16.5517 605.7362,16.9117 607.6082,17.6317 L612.6482,17.2717 L614.4482,18.2077 C614.4482,19.9357 613.7752,21.3517 612.4322,22.4557 L607.6082,26.7757 L607.6082,27.1357 C609.6232,26.5127 611.6632,26.4407 613.7282,26.9197 L613.7282,27.9997 L611.5682,31.0237 L610.6322,31.5997 L609.8402,33.0397 C610.8482,33.5197 611.8312,33.3997 612.7912,32.6797 L614.4482,34.4077 C615.7432,26.1997 616.6802,17.8727 617.2562,9.4237 C615.0472,9.9047 612.9112,10.4077 610.8482,10.9357 C609.4072,12.0877 607.9192,12.7837 606.3842,13.0237 C605.7112,12.6397 605.6392,12.0877 606.1672,11.3677 L609.4802,9.0637 C612.3122,8.3437 615.3352,7.7437 618.5522,7.2637 Z M602.9992,43.8397 C602.9992,45.0887 603.5512,45.9997 604.6562,46.5757 C606.3842,47.4887 608.2312,47.7527 610.1992,47.3677 C612.6952,46.5037 615.2402,45.7117 617.8312,44.9917 C619.7032,44.8477 621.6232,44.4647 623.5922,43.8397 C626.3272,43.5047 628.9202,43.7677 631.3672,44.6317 L631.9442,45.8557 L631.2242,47.3677 C629.8792,48.8557 628.3912,49.1207 626.7602,48.1597 L626.4002,47.3677 C626.8792,47.0797 627.1192,46.5757 627.1192,45.8557 C624.1432,45.5207 621.1672,45.7597 618.1922,46.5757 C615.2152,47.6327 612.3602,48.7127 609.6232,49.8157 C607.0312,50.1527 604.7032,49.7917 602.6402,48.7357 C601.0072,47.9207 600.2392,46.6727 600.3362,44.9917 L602.2802,43.6957 L602.9992,43.8397 Z M614.6632,49.2397 C616.9192,52.3607 618.9112,55.5287 620.6402,58.7437 L623.7362,60.9037 C623.7362,61.8147 623.4952,62.5107 623.0162,62.9917 C619.0792,63.9517 615.1432,64.6717 611.2072,65.1517 C608.8072,64.8157 606.5512,64.8157 604.4402,65.1517 C603.0952,64.3347 601.6792,63.7357 600.1922,63.3517 C598.1272,62.2467 596.2072,60.9507 594.4322,59.4637 C593.4712,57.9757 592.4152,56.5357 591.2642,55.1437 C590.4002,54.1837 590.1352,53.1277 590.4722,51.9757 L592.7762,51.8317 C594.5042,53.3207 595.9902,54.9997 597.2402,56.8717 L599.0392,58.1677 L599.9762,59.1037 C603.1912,61.2157 606.8632,62.1997 610.9912,62.0557 C613.5352,62.0557 616.1272,61.6237 618.7682,60.7597 C616.4642,57.3997 614.9042,53.6797 614.0882,49.5997 L614.6632,49.2397 Z M589.7512,27.2797 C587.8802,30.2567 586.2712,33.3037 584.9282,36.4237 L585.6482,36.4237 L589.0322,33.6157 L589.9682,32.1037 L589.9682,27.4957 L589.7512,27.2797 Z M587.5202,3.5197 C589.8712,3.9047 591.9842,4.8877 593.8562,6.4717 L594.5752,7.9837 C594.2402,10.3367 594.1192,12.6637 594.2162,14.9677 C595.5592,14.7277 596.9272,14.3197 598.3202,13.7437 L600.1922,14.4637 L600.5522,15.1837 C599.0642,16.0957 597.5752,16.6237 596.0882,16.7677 L594.2162,17.9917 C593.4952,21.5917 593.1362,25.1197 593.1362,28.5757 L593.4952,29.2957 C595.3202,28.1927 597.1192,26.7287 598.8962,24.9037 L600.5522,24.6877 L601.0562,25.4797 C598.0792,28.5517 595.2712,31.5757 592.6322,34.5517 C592.8712,38.7767 592.4632,42.7847 591.4072,46.5757 C590.4472,47.1047 589.6082,47.0557 588.8882,46.4317 C588.6472,43.8397 588.8162,41.1757 589.3922,38.4397 L589.0322,37.5037 L584.7832,40.1677 C583.3912,40.6477 582.1922,40.4557 581.1842,39.5917 C580.7032,38.1997 580.9682,36.8317 581.9762,35.4877 C584.7122,30.4007 587.5432,25.2397 590.4722,20.0077 L590.1122,19.6477 C587.9992,20.4157 586.0322,21.3037 584.2072,22.3117 C582.3362,22.7917 580.5602,23.0317 578.8802,23.0317 C577.8232,22.5527 577.3672,21.8077 577.5122,20.7997 L580.8232,20.7997 C584.0392,19.8887 587.2072,18.6647 590.3272,17.1277 C590.9512,14.1527 591.0722,11.0557 590.6882,7.8397 L589.3922,6.9037 L588.5282,5.5357 L586.9442,5.5357 C586.3672,5.2967 586.1982,4.8157 586.4402,4.0957 L587.5202,3.5197 Z M581.4002,51.9757 L579.6002,54.6397 C579.9352,55.6007 580.1762,56.6557 580.3202,57.8077 C581.0392,57.9517 581.8312,57.8797 582.6962,57.5917 L583.4882,58.3837 L582.1192,60.5437 C580.4392,62.3187 578.7822,62.5837 577.1522,61.3357 L576.9362,55.7197 L580.6802,51.8317 L581.4002,51.9757 Z" id="Fill-18" fill="#666666"></path>
            <path d="M689.3276,24.9038 L689.3276,25.4798 L689.8316,25.1198 L689.3276,24.9038 Z M691.3446,5.8238 C692.5916,5.8238 693.7666,6.1118 694.8716,6.6878 C695.8806,9.1838 695.9516,11.7998 695.0886,14.5358 C693.5046,18.1358 691.7036,21.5448 689.6876,24.7598 C691.5596,24.5198 693.4066,23.5608 695.2316,21.8798 C697.0076,21.1598 698.8316,21.0408 700.7036,21.5198 L700.7036,22.8158 C699.4076,24.2088 698.0396,24.6158 696.5996,24.0398 C694.9676,25.0008 693.4316,25.8878 691.9916,26.7038 C692.7126,27.6158 693.3596,28.6238 693.9356,29.7278 C693.9356,30.8328 694.2476,31.8408 694.8716,32.7518 C695.0156,35.8238 694.7746,38.7278 694.1516,41.4638 L694.8716,42.2558 C696.7436,43.2168 698.5916,44.2478 700.4156,45.3518 L700.8486,45.8558 C703.4396,48.1128 706.0316,50.4168 708.6236,52.7678 L708.2646,54.2798 L706.6076,55.5758 C704.5926,55.0488 702.9356,54.0638 701.6406,52.6238 C701.1106,51.2808 700.3906,49.9598 699.4796,48.6638 C697.5596,46.9848 695.4716,45.5678 693.2166,44.4158 L692.1366,44.7758 L690.7676,46.1438 C688.4646,48.4478 685.9436,50.3678 683.2076,51.9038 C681.9116,52.2398 680.7836,52.6488 679.8236,53.1278 C678.0966,53.8958 676.4396,53.9678 674.8556,53.3438 L674.6396,52.7678 C677.2786,52.1918 679.8956,51.3278 682.4876,50.1758 C683.3516,49.0718 684.4316,48.1598 685.7276,47.4398 C687.2636,46.0488 688.6316,44.4408 689.8316,42.6158 L687.3116,40.6718 C685.7746,40.4318 684.3596,40.1208 683.0636,39.7358 L681.1196,38.6558 L681.1196,37.7918 C682.2716,37.6478 683.5196,37.7678 684.8636,38.1518 C686.7356,39.2078 688.8236,39.8558 691.1286,40.0958 C692.0396,38.1768 692.3756,36.0398 692.1366,33.6878 L690.4076,28.0718 C688.8236,28.6008 687.2636,29.4648 685.7276,30.6638 L683.2076,30.8078 C682.4396,30.3288 682.3186,29.6808 682.8486,28.8638 C685.0556,26.8478 687.0236,24.4718 688.7516,21.7358 L692.1366,14.7518 C692.7596,12.5918 692.8796,10.4568 692.4956,8.3438 L690.7676,6.9038 L690.4076,6.1838 L691.3446,5.8238 Z M673.3446,15.6158 L674.2796,17.2718 C673.9436,19.3848 674.1366,21.3038 674.8556,23.0318 L675.9356,22.6718 L676.4396,21.0158 C678.1196,21.1128 679.8716,20.9208 681.6956,20.4398 L683.4246,21.5198 L683.5676,22.0958 L681.2646,24.1838 C678.9116,23.7998 676.8236,24.1598 674.9996,25.2638 C674.1826,27.6648 673.5596,30.0408 673.1286,32.3918 L671.6156,34.5518 L674.4956,34.9118 L675.7206,37.5758 C676.8236,36.2798 677.9036,34.9118 678.9596,33.4718 L680.1836,33.3278 C680.0876,34.1448 680.2076,34.9118 680.5446,35.6318 L679.6806,36.0638 C678.3846,38.5118 677.0626,40.8638 675.7206,43.1198 L673.5596,43.1198 L672.7676,42.2558 C672.6236,40.9598 672.4316,39.6398 672.1916,38.2958 C670.7516,40.1208 669.7196,42.1598 669.0966,44.4158 L668.8806,46.8638 L667.7276,47.9438 C666.8636,47.9438 666.0716,47.7038 665.3516,47.2238 C665.1106,45.2078 664.9436,43.1448 664.8486,41.0318 C664.7036,39.2078 665.3036,37.5518 666.6476,36.0638 L667.3676,36.0638 C667.8476,36.8318 668.4956,37.5288 669.3116,38.1518 L671.1116,35.2718 L670.1766,34.9118 L669.3116,34.0478 C670.2716,32.4168 670.7516,30.5688 670.7516,28.5038 C668.7356,28.7448 666.8876,29.3928 665.2076,30.4478 L662.9036,30.0878 L662.9036,29.3678 L671.1116,25.2638 C671.1116,22.1928 670.9916,19.0968 670.7516,15.9758 L671.6156,15.2558 L673.3446,15.6158 Z M658.0796,8.4878 C659.9516,9.3048 661.7516,10.1928 663.4796,11.1518 C663.4796,13.4088 662.9756,15.4968 661.9686,17.4158 C659.2316,23.0318 656.3276,28.4568 653.2566,33.6878 L655.5596,34.1918 C656.2796,34.9118 656.7596,35.6568 656.9996,36.4238 C656.5196,40.7918 656.2076,45.1118 656.0636,49.3838 L656.6396,50.1758 L657.3596,49.5998 C657.6946,47.1048 658.5126,44.8238 659.8076,42.7598 L660.7436,42.6158 L660.8886,44.0558 C660.5516,46.1688 659.9746,48.0878 659.1596,49.8158 C658.1986,53.6568 657.4786,57.4948 656.9996,61.3358 L655.7036,62.6318 L654.5526,62.7758 L653.3996,61.6958 C653.1596,53.4878 653.1596,45.3278 653.3996,37.2158 L652.1766,35.1278 C649.5356,38.5838 646.7996,41.7998 643.9686,44.7758 L641.7356,46.2878 L640.9436,45.3518 L642.5276,43.3358 L643.3916,42.7598 C646.1286,38.9208 648.8636,34.9368 651.5996,30.8078 C655.0566,25.2398 657.7916,19.2408 659.8076,12.8078 L657.1436,10.7918 L656.9996,9.4238 L658.0796,8.4878 Z" id="Fill-20" fill="#666666"></path>
            <path d="M764.856,29.2236 C764.471,29.0796 764.087,29.1516 763.704,29.4396 L763.704,29.7996 L764.856,29.2236 Z M758.88,55.6476 L755.568,56.1516 L755.568,57.6636 C757.055,59.6316 758.471,61.5986 759.816,63.5676 L760.392,63.5676 L760.608,56.1516 L759.024,55.7916 L758.88,55.6476 Z M757.08,14.5356 C755.303,15.0156 753.696,15.6406 752.256,16.4076 L750.672,16.0476 C750.576,18.1606 750.912,20.1286 751.68,21.9516 L752.76,21.9516 C755.255,21.0876 757.872,20.1766 760.608,19.2156 L761.184,16.4076 L760.392,15.6156 C759.384,16.3846 758.448,16.9366 757.584,17.2716 C757.248,16.7926 757.32,16.1196 757.8,15.2556 L757.08,14.5356 Z M757.08,36.9996 C753,39.4476 749.135,42.1606 745.488,45.1356 L745.488,45.7116 C746.255,45.3276 747.144,45.1356 748.152,45.1356 C752.568,43.9366 756.839,42.2086 760.968,39.9516 L760.608,39.2316 L758.52,38.5116 L757.224,37.2156 L757.08,36.9996 Z M763.92,2.0796 C764.687,2.0796 765.432,2.3206 766.152,2.7996 C766.536,4.1436 766.728,5.5126 766.728,6.9036 L766.008,9.0636 C765.528,12.4246 764.832,15.7366 763.92,18.9996 L764.496,20.6556 L762.048,26.5596 L759.24,26.5596 C756.504,27.9526 753.792,29.1516 751.104,30.1596 L750.96,29.4396 C753.503,27.6646 755.952,25.5766 758.304,23.1756 L758.304,22.8156 C756.191,23.9676 754.103,24.8076 752.04,25.3356 L751.464,27.8556 C750.312,28.7676 749.135,28.8636 747.936,28.1436 C747.936,25.5046 747.887,22.6966 747.792,19.7196 C747.551,18.3276 746.903,17.2246 745.848,16.4076 C744.744,16.2636 743.784,15.8806 742.968,15.2556 C742.439,14.7766 742.439,14.2006 742.968,13.5276 C745.416,13.1926 747.744,13.7206 749.952,15.1116 L757.08,11.7276 C757.8,11.8716 758.711,11.7526 759.816,11.3676 C760.584,11.7526 761.4,11.8716 762.264,11.7276 L762.984,6.3276 L762.408,5.2476 C759.672,5.9676 757.008,6.7596 754.416,7.6236 L753.336,7.2636 L753.336,6.1836 C756.072,4.7916 758.927,3.5446 761.904,2.4396 C762.48,2.6806 763.152,2.5596 763.92,2.0796 Z M769.896,25.4796 C770.76,25.4796 771.671,25.6726 772.632,26.0556 C773.015,26.6316 773.015,27.2326 772.632,27.8556 C769.176,30.1126 765.72,32.0566 762.264,33.6876 L761.328,34.6236 L760.248,34.9836 L759.456,36.2076 C761.568,36.5926 763.56,37.4796 765.432,38.8716 C768.888,37.4796 772.344,37.2406 775.8,38.1516 L775.8,39.2316 C772.728,39.9516 769.631,40.3836 766.512,40.5276 L765.288,41.0316 C764.471,43.1916 764.015,45.2566 763.92,47.2236 C763.632,52.6956 763.679,58.0716 764.064,63.3516 L762.984,67.8156 C762.023,68.0556 761.112,68.4636 760.248,69.0396 L757.944,67.4556 C756.599,65.3436 755.543,63.1356 754.776,60.8316 L752.256,58.7436 L751.464,57.3036 L750.96,57.3036 L750.96,53.5596 L752.4,52.6236 C755.04,52.7676 757.656,53.0086 760.248,53.3436 L760.968,52.8396 C760.727,49.7206 760.608,46.5526 760.608,43.3356 L759.816,43.1916 C755.591,45.1126 751.343,46.7196 747.072,48.0156 C744.815,48.5916 742.727,48.4726 740.808,47.6556 C740.232,46.7916 740.423,45.9526 741.384,45.1356 C745.752,42.3996 749.975,39.3756 754.056,36.0636 C757.368,34.3356 760.511,32.2476 763.488,29.7996 C762.288,29.7996 761.135,30.0406 760.032,30.5196 C755.807,32.6326 751.655,34.5286 747.576,36.2076 C745.704,37.0246 744.168,36.8556 742.968,35.7036 L744.192,33.1116 C745.295,32.5836 746.303,32.7046 747.216,33.4716 C754.368,29.7276 761.927,27.0636 769.896,25.4796 Z M731.16,12.3036 C732.312,12.4006 733.439,12.6886 734.544,13.1676 C735.408,14.3196 735.527,15.5196 734.904,16.7676 C732.551,20.0796 729.936,23.1756 727.056,26.0556 C726.095,27.1126 725.015,27.5206 723.816,27.2796 L723.6,26.0556 C726.576,22.8406 729.168,19.2406 731.376,15.2556 C730.175,14.3446 730.055,13.2876 731.016,12.0876 L731.16,12.3036 Z M735.984,23.1756 C737.28,24.2326 737.807,25.4796 737.568,26.9196 L735.624,30.1596 L734.904,30.6636 L734.4,31.9596 L732.888,33.1116 C731.4,35.7036 729.528,37.9846 727.272,39.9516 C729.047,43.0726 730.104,46.3596 730.44,49.8156 C731.16,48.3756 731.832,46.7676 732.456,44.9916 L734.544,43.6956 C734.927,44.5596 735.048,45.5676 734.904,46.7196 C733.704,51.7596 732.335,56.7026 730.8,61.5516 C729.983,62.2716 729.072,62.3436 728.064,61.7676 C726.671,57.5436 726.288,53.0806 726.912,48.3756 C726.912,46.1196 726.311,44.1276 725.112,42.3996 L721.368,46.0716 C720.12,47.3676 718.752,48.3036 717.264,48.8796 C716.544,48.6406 716.231,48.1596 716.328,47.4396 L718.992,45.1356 C723.312,40.3366 727.488,35.2716 731.52,29.9436 C733.055,28.0716 733.896,25.9116 734.04,23.4636 L735.12,23.0316 L735.984,23.1756 Z" id="Fill-22" fill="#666666"></path>
            <path d="M830.52,20.6557 C827.303,21.1357 824.208,21.9277 821.232,23.0317 L820.872,28.4317 C822.12,28.4317 823.295,28.8167 824.4,29.5837 L823.68,31.0237 L820.656,31.3837 C819.839,33.2557 819.479,35.1277 819.576,36.9997 L820.872,36.9997 C823.368,34.5517 825.48,31.6967 827.207,28.4317 C828.551,25.9837 829.656,23.3917 830.52,20.6557 Z M815.112,41.6797 L812.736,42.3997 L812.448,42.9757 L814.392,44.0557 L815.112,43.4797 L815.328,41.8237 L815.112,41.6797 Z M816.048,33.4717 L812.304,34.5517 L812.304,39.9517 C813.456,39.8077 814.583,39.4477 815.688,38.8717 L816.192,38.1517 L816.192,33.6877 L816.048,33.4717 Z M817.416,24.9037 C815.16,25.6237 812.904,26.2967 810.648,26.9197 L811.583,32.1037 C813.696,31.8637 815.639,31.0237 817.416,29.5837 C817.751,28.0487 817.751,26.4877 817.416,24.9037 Z M827.207,7.9837 C827.591,8.2247 828.024,8.4647 828.504,8.7037 L828.72,10.6477 L826.344,12.2317 L820.656,18.3517 C820.32,19.5037 820.512,20.3207 821.232,20.7997 L827.424,18.7837 C829.775,18.4007 832.104,18.4007 834.408,18.7837 C834.167,20.7527 833.688,22.5527 832.968,24.1837 C831.335,26.7757 829.919,29.3677 828.72,31.9597 L825.696,35.9917 L824.76,36.7837 L823.68,38.1517 C822.48,39.1127 821.112,39.6397 819.576,39.7357 C818.712,41.8957 818.04,44.0317 817.56,46.1437 L818.136,47.2237 C821.832,50.5837 825.887,53.3207 830.304,55.4317 C832.56,55.9117 834.815,56.5117 837.072,57.2317 C841.007,57.7107 845.111,58.0717 849.384,58.3117 C849.719,59.0787 849.647,59.6557 849.167,60.0397 C846.095,60.8067 843.072,61.2387 840.096,61.3357 C836.448,61.2387 832.896,60.8067 829.44,60.0397 C824.639,57.5917 820.104,54.6157 815.832,51.1117 C814.488,52.8397 813.24,54.5207 812.088,56.1517 C809.111,59.5107 805.608,61.2387 801.576,61.3357 L801.36,60.2557 C803.135,60.0147 804.744,59.3197 806.184,58.1677 C808.823,55.8167 811.008,53.0807 812.736,49.9597 C813.215,48.7607 812.832,47.7277 811.583,46.8637 L807.624,44.7757 C805.799,44.2967 804.071,43.6237 802.44,42.7597 L801.576,42.0397 C798.36,40.9847 795.192,40.2877 792.072,39.9517 L792.072,39.2317 C793.512,38.6087 795.192,38.2487 797.112,38.1517 C800.903,39.1127 804.696,40.3367 808.488,41.8237 C808.488,36.8807 807.912,31.9597 806.76,27.0637 L803.808,25.2637 L802.44,25.2637 C801.479,24.7847 801.312,23.9677 801.936,22.8157 C804.192,22.7197 806.423,23.1037 808.632,23.9677 L809.928,25.2637 C812.423,24.5437 814.847,23.5357 817.2,22.2397 C817.583,21.9047 817.583,21.5447 817.2,21.1597 C816.288,21.8797 815.423,21.9997 814.608,21.5197 C814.464,20.5597 814.992,19.6477 816.192,18.7837 C814.847,17.8727 814.799,16.9367 816.048,15.9757 C817.295,16.5997 818.424,16.3607 819.432,15.2557 L820.512,13.7437 C817.872,14.5117 815.28,15.2087 812.736,15.8317 C809.903,16.7927 807.12,17.0807 804.384,16.6957 L804.384,15.6157 C808.319,14.3677 812.375,13.3117 816.552,12.4477 C820.104,10.8637 823.655,9.3767 827.207,7.9837 Z" id="Fill-24" fill="#666666"></path>
            <g id="Group-28" transform="translate(866.000000, 13.040000)">
                <mask id="mask-4" fill="white">
                    <use xlink:href="#path-3"></use>
                </mask>
                <g id="Clip-27"></g>
                <path d="M42.2075,24.8237 C38.9915,25.5437 35.9675,26.4557 33.1365,27.5597 C33.2315,29.4317 33.7125,31.2317 34.5755,32.9597 L36.7355,36.0557 L37.7435,36.2717 L39.6155,34.1117 C40.5755,31.1357 41.5115,28.0887 42.4245,24.9677 L42.2075,24.8237 Z M17.0795,18.4157 C15.2555,20.0487 13.6475,21.8717 12.2565,23.8877 C12.6395,25.4717 13.5265,26.6957 14.9205,27.5597 L16.2165,25.1837 L17.2965,18.6317 L17.0795,18.4157 Z M9.7355,26.2637 C7.7205,28.2797 6.3525,30.5837 5.6325,33.1757 C5.0565,35.0957 5.3445,36.8957 6.4955,38.5757 C7.3595,39.0557 8.2705,39.0557 9.2315,38.5757 C11.1505,36.6567 12.6395,34.3997 13.6955,31.8077 C12.8795,29.9847 11.7275,28.1837 10.2395,26.4077 L9.7355,26.2637 Z M39.3995,0.1997 C40.3595,0.4407 41.4155,0.8237 42.5675,1.3517 L43.1445,3.0077 C41.5115,5.7437 40.7435,8.3607 40.8405,10.8557 L42.9285,11.0717 L44.0795,11.5757 C45.8085,14.6967 46.6235,18.0317 46.5275,21.5837 L50.6325,21.9437 L51.3525,23.2397 L50.6325,24.4637 L48.9035,24.6077 C48.0395,24.2237 47.1765,24.0317 46.3115,24.0317 C45.1595,25.7597 44.5355,27.5597 44.4395,29.4317 C43.3355,32.6477 42.0155,35.6957 40.4795,38.5757 C38.7995,39.2957 37.0705,39.2237 35.2965,38.3597 L33.4955,36.2717 C32.3445,34.4487 31.6475,32.4087 31.4075,30.1517 L29.0315,27.1277 L29.3925,25.9037 L30.8315,24.9677 C34.6715,24.2477 38.5835,23.3117 42.5675,22.1597 C43.3355,21.4397 43.6475,20.4567 43.5045,19.2077 C43.4065,17.0957 42.8075,15.1037 41.7035,13.2317 C40.4075,13.4727 39.3275,13.2807 38.4645,12.6557 C37.7435,11.8407 37.5035,10.8557 37.7435,9.7037 C38.8475,7.2557 39.4725,4.7357 39.6155,2.1437 L37.2395,2.6477 C33.6865,4.9047 30.1845,6.9927 26.7285,8.9117 L24.7125,11.4317 L22.4795,13.2317 L20.8235,15.3197 C20.3435,19.9757 19.4075,24.5607 18.0165,29.0717 C19.1675,31.2807 20.5835,33.3197 22.2645,35.1917 L21.3995,36.6317 L19.5275,36.8477 L16.5755,34.6157 C14.9915,36.1037 13.6715,37.7837 12.6155,39.6557 C10.1195,41.3837 7.5995,41.7437 5.0565,40.7357 C2.4645,38.2407 1.7675,35.1917 2.9685,31.5917 C4.1675,28.9047 5.8945,26.3357 8.1515,23.8877 C7.0475,21.6327 5.8715,19.4487 4.6235,17.3357 C3.5195,15.0797 2.4155,12.7997 1.3115,10.4957 C0.6395,8.9597 0.2555,7.3527 0.1595,5.6717 L1.3115,4.8797 L1.3115,5.3837 L2.2475,6.3917 C4.5035,11.5757 7.1195,16.5197 10.0965,21.2237 L10.8155,21.5837 L16.2165,16.6157 C16.9365,15.9927 17.3435,15.1757 17.4395,14.1677 C17.1035,11.9607 16.5515,9.8007 15.7835,7.6877 L16.3595,6.9677 L18.3755,6.9677 C19.2875,8.7927 20.1765,10.5677 21.0395,12.2957 C24.5915,8.9837 28.5035,5.9597 32.7755,3.2237 C34.6945,1.9757 36.9035,0.9687 39.3995,0.1997 Z" id="Fill-26" fill="#666666" mask="url(#mask-4)"></path>
            </g>
        </g>
    </g>
</svg>